<svg width="12" height="12" viewBox="0 0 12 12" fill="none" xmlns="http://www.w3.org/2000/svg">
<path d="M10.1585 2.07754C9.39367 1.7266 8.57349 1.46804 7.71595 1.31996C7.70033 1.3171 7.68473 1.32424 7.67669 1.33853C7.57121 1.52613 7.45437 1.77088 7.37255 1.96326C6.4502 1.82517 5.53259 1.82517 4.62916 1.96326C4.54732 1.76661 4.42624 1.52613 4.32029 1.33853C4.31224 1.32472 4.29664 1.31758 4.28102 1.31996C3.42395 1.46757 2.60378 1.72613 1.83847 2.07754C1.83184 2.0804 1.82616 2.08517 1.82239 2.09135C0.266696 4.41553 -0.159475 6.68258 0.0495901 8.92153C0.050536 8.93248 0.0566849 8.94296 0.065199 8.94962C1.0916 9.70339 2.08585 10.161 3.06164 10.4643C3.07726 10.4691 3.0938 10.4634 3.10374 10.4505C3.33456 10.1353 3.54032 9.80292 3.71674 9.4534C3.72715 9.43293 3.71721 9.40865 3.69593 9.40055C3.36957 9.27675 3.0588 9.1258 2.75986 8.95439C2.73622 8.94058 2.73433 8.90676 2.75608 8.89057C2.81899 8.84343 2.88191 8.79438 2.94198 8.74486C2.95285 8.73582 2.96799 8.73391 2.98077 8.73962C4.94464 9.63626 7.07077 9.63626 9.01148 8.73962C9.02425 8.73344 9.0394 8.73535 9.05074 8.74439C9.11082 8.79391 9.17373 8.84343 9.23711 8.89057C9.25886 8.90676 9.25744 8.94058 9.2338 8.95439C8.93486 9.12913 8.62409 9.27675 8.29726 9.40008C8.27598 9.40817 8.26651 9.43293 8.27692 9.4534C8.45713 9.80243 8.66288 10.1348 8.88945 10.45C8.89891 10.4634 8.91593 10.4691 8.93155 10.4643C9.91207 10.161 10.9063 9.70339 11.9327 8.94962C11.9417 8.94296 11.9474 8.93296 11.9483 8.92201C12.1985 6.33354 11.5292 4.08507 10.1741 2.09182C10.1708 2.08517 10.1651 2.0804 10.1585 2.07754ZM4.01001 7.55825C3.41875 7.55825 2.93157 7.01542 2.93157 6.34878C2.93157 5.68214 3.4093 5.13932 4.01001 5.13932C4.61544 5.13932 5.0979 5.68691 5.08844 6.34878C5.08844 7.01542 4.6107 7.55825 4.01001 7.55825ZM7.99737 7.55825C7.40613 7.55825 6.91895 7.01542 6.91895 6.34878C6.91895 5.68214 7.39666 5.13932 7.99737 5.13932C8.60282 5.13932 9.08527 5.68691 9.07582 6.34878C9.07582 7.01542 8.60282 7.55825 7.99737 7.55825Z" fill="#9D8B6F"/>
</svg>
