<svg width="61" height="61" viewBox="0 0 61 61" fill="none" xmlns="http://www.w3.org/2000/svg">
<circle cx="30.5" cy="30.5" r="30" fill="#F8F8F6" stroke="#9A886C"/>
<path d="M30.5 0.5C34.4931 0.5 38.2382 3.69687 41.0146 9.16016C43.7769 14.5958 45.5 22.1398 45.5 30.5C45.5 38.8602 43.7769 46.4042 41.0146 51.8398C38.2382 57.3031 34.4931 60.5 30.5 60.5C26.5069 60.5 22.7618 57.3031 19.9854 51.8398C17.2231 46.4042 15.5 38.8602 15.5 30.5C15.5 22.1398 17.2231 14.5958 19.9854 9.16016C22.7618 3.69687 26.5069 0.5 30.5 0.5Z" fill="#F8F8F6" stroke="#9A886C"/>
<path d="M30.5 0.5C34.4931 0.5 38.2382 3.69687 41.0146 9.16016C43.7769 14.5958 45.5 22.1398 45.5 30.5C45.5 38.8602 43.7769 46.4042 41.0146 51.8398C38.2382 57.3031 34.4931 60.5 30.5 60.5C26.5069 60.5 22.7618 57.3031 19.9854 51.8398C17.2231 46.4042 15.5 38.8602 15.5 30.5C15.5 22.1398 17.2231 14.5958 19.9854 9.16016C22.7618 3.69687 26.5069 0.5 30.5 0.5Z" fill="#F8F8F6" stroke="#9A886C"/>
<path d="M0.5 29.5H60.5" stroke="#9A886C"/>
</svg>
