<svg width="65" height="65" viewBox="0 0 65 65" fill="none" xmlns="http://www.w3.org/2000/svg">
<path d="M32.7188 0.50019C39.0408 0.54135 45.2091 2.45365 50.4457 5.99593C55.6823 9.53821 59.7527 14.5518 62.1436 20.4045C64.5345 26.2571 65.1387 32.6867 63.8802 38.8823C62.6216 45.0779 59.5566 50.7621 55.0716 55.218C50.5867 59.674 44.8828 62.702 38.6791 63.9204C32.4754 65.1387 26.0499 64.4927 20.2129 62.0639C14.3759 59.6351 9.38882 55.5323 5.88059 50.2728C2.37237 45.0133 0.500134 38.8328 0.5 32.5106C0.499911 28.2893 1.33474 24.1098 2.95643 20.2124C4.57812 16.3151 6.95464 12.777 9.9492 9.80183C12.9437 6.82664 16.4972 4.47313 20.405 2.87676C24.3127 1.2804 28.4977 0.472708 32.7188 0.50019Z" fill="#9A886C"/>
<path d="M36.5327 51.0793L32.8649 53.1633L24.9873 48.6201L28.5718 46.5361H28.7177L36.5327 51.0793Z" fill="#F8F8F6"/>
<path d="M50.6205 22.4449V26.7171L42.868 22.2365L40.784 21.0278L38.7 22.2365L28.8218 27.9467L26.7378 29.1554V31.7604L22.8823 29.468L20.7983 28.2593L18.7143 29.468L15.0881 31.5312V22.4449L32.8439 12.2124L50.6205 22.4449Z" fill="#F8F8F6"/>
<path d="M50.6205 31.5727V42.9722L40.7631 48.6616L30.9058 42.9722V31.5727L40.784 25.8833L50.6205 31.5727Z" fill="#F8F8F6"/>
<path d="M26.4668 36.3871V42.9518L20.7775 46.2237L15.0881 42.9518V36.3871L20.7566 33.1152L26.4668 36.3871Z" fill="#F8F8F6"/>
</svg>
