<svg width="385" height="522" viewBox="0 0 385 522" fill="none" xmlns="http://www.w3.org/2000/svg">
<g clip-path="url(#clip0_675_190)">
<mask id="mask0_675_190" style="mask-type:luminance" maskUnits="userSpaceOnUse" x="1" y="1" width="383" height="520">
<path d="M384 1H1V521H384V1Z" fill="white"/>
</mask>
<g mask="url(#mask0_675_190)">
<path d="M384 1H1V521H384V1Z" fill="#F8F8F6"/>
<mask id="mask1_675_190" style="mask-type:luminance" maskUnits="userSpaceOnUse" x="9" y="9" width="367" height="504">
<path d="M366 9C366 14.5228 370.477 19 376 19V503C370.477 503 366 507.477 366 513H19C19 507.477 14.5228 503 9 503V19C14.5228 19 19 14.5228 19 9H366Z" fill="white"/>
</mask>
<g mask="url(#mask1_675_190)">
<path d="M366 9H367V8H366V9ZM376 19H377V18H376V19ZM376 503V504H377V503H376ZM366 513V514H367V513H366ZM19 513H18V514H19V513ZM9 503H8V504H9V503ZM9 19V18H8V19H9ZM19 9V8H18V9H19ZM366 9H365C365 15.0751 369.925 20 376 20V19V18C371.029 18 367 13.9706 367 9H366ZM376 19H375V503H376H377V19H376ZM376 503V502C369.925 502 365 506.925 365 513H366H367C367 508.029 371.029 504 376 504V503ZM366 513V512H19V513V514H366V513ZM19 513H20C20 506.925 15.0751 502 9 502V503V504C13.9706 504 18 508.029 18 513H19ZM9 503H10V19H9H8V503H9ZM9 19V20C15.0751 20 20 15.0751 20 9H19H18C18 13.9706 13.9706 18 9 18V19ZM19 9V10H366V9V8H19V9Z" fill="#9A886C"/>
</g>
<path d="M237.5 0.5C237.5 -24.3528 217.353 -44.5 192.5 -44.5C167.647 -44.5 147.5 -24.3528 147.5 0.5C147.5 25.3528 167.647 45.5 192.5 45.5C217.353 45.5 237.5 25.3528 237.5 0.5Z" fill="#F8F8F6"/>
<path d="M237.5 0.5C237.5 -24.3528 217.353 -44.5 192.5 -44.5C167.647 -44.5 147.5 -24.3528 147.5 0.5C147.5 25.3528 167.647 45.5 192.5 45.5C217.353 45.5 237.5 25.3528 237.5 0.5Z" stroke="#9A886C"/>
</g>
<path d="M384 1H1V521H384V1Z" stroke="#9A886C"/>
</g>
<defs>
<clipPath id="clip0_675_190">
<rect width="385" height="522" fill="white"/>
</clipPath>
</defs>
</svg>
