<svg width="46" height="32" viewBox="0 0 46 32" fill="none" xmlns="http://www.w3.org/2000/svg">
<path d="M45.699 8.23067C45.699 12.7468 42.0436 16.409 37.5349 16.409V12.3193C40.5227 12.3193 42.7609 9.10296 40.988 5.9395C40.3632 4.82496 39.1807 4.14097 37.9047 4.14097H8.59381C7.31779 4.14097 6.13523 4.82496 5.51043 5.9395C3.73762 9.10296 5.97573 12.3193 8.96361 12.3193V16.409C4.45487 16.409 0.800537 12.7468 0.800537 8.23067C0.800537 6.74054 1.19777 5.34406 1.89267 4.14097C3.30381 1.69611 5.94221 0.0512695 8.96361 0.0512695H37.5349C40.5563 0.0512695 43.1947 1.69611 44.6058 4.14097C45.3007 5.34406 45.699 6.74054 45.699 8.23067Z" fill="#9A886C"/>
<path d="M17.1262 10.9351V31.9495H13.0452V12.0547L17.1262 10.9351Z" fill="#9A886C"/>
<path d="M25.291 8.23096H21.209V31.9498H25.291V8.23096Z" fill="#9A886C"/>
<path d="M33.4539 31.9485H29.3718V10.9351L33.4539 11.9529V31.9485Z" fill="#9A886C"/>
</svg>
