<svg width="845" height="601" viewBox="0 0 845 601" fill="none" xmlns="http://www.w3.org/2000/svg">
<path d="M844.659 154.598C844.659 239.546 775.903 308.431 691.095 308.431V231.505C747.296 231.505 789.394 171.006 756.048 111.502C744.296 90.5383 722.052 77.6727 698.051 77.6727H146.725C122.724 77.6727 100.48 90.5383 88.728 111.502C55.3821 171.006 97.4801 231.505 153.681 231.505V308.431C68.8733 308.431 0.136719 239.546 0.136719 154.598C0.136719 126.57 7.6085 100.302 20.6793 77.6727C47.2223 31.6858 96.8495 0.74707 153.681 0.74707H691.095C747.927 0.74707 797.554 31.6858 824.097 77.6727C837.168 100.302 844.659 126.57 844.659 154.598Z" fill="#9A886C"/>
<path d="M537.573 549.882L537.573 154.609L614.336 154.609L614.336 528.822L537.573 549.882Z" fill="#9A886C"/>
<path d="M383.998 600.747L460.779 600.747L460.779 154.605L383.998 154.605L383.998 600.747Z" fill="#9A886C"/>
<path d="M230.457 154.628L307.239 154.628L307.239 549.882L230.457 530.737L230.457 154.628Z" fill="#9A886C"/>
</svg>
