<svg width="65" height="64" viewBox="0 0 65 64" fill="none" xmlns="http://www.w3.org/2000/svg">
<g clip-path="url(#clip0_178_811)">
<path d="M32.5 64C50.1731 64 64.5 49.6731 64.5 32C64.5 14.3269 50.1731 0 32.5 0C14.8269 0 0.5 14.3269 0.5 32C0.5 49.6731 14.8269 64 32.5 64Z" fill="#9A886C"/>
<path d="M43.38 45.5118C38.036 36.8318 30.068 31.9118 20.228 29.8638C16.748 29.1438 13.252 29.1518 9.87601 30.4798C7.56401 31.3918 7.21201 32.3518 8.30001 34.7758C15.692 33.0238 22.572 34.6558 29.012 38.3758C35.5 42.1278 40.34 47.3518 42.54 54.7758C45.628 53.8318 46.028 53.3118 45.284 50.4398C44.844 48.7518 44.292 46.9918 43.38 45.5118Z" fill="#F8F8F6"/>
<path d="M49.2281 38.4482C42.3641 28.4482 32.6441 22.8562 20.7641 20.9842C17.6201 20.4882 14.4121 20.6242 11.4681 22.1282C10.0601 22.8482 8.81207 23.7682 8.47607 25.7202C17.7401 23.1682 26.0521 25.4242 33.8761 29.9602C41.7401 34.5202 47.8841 40.6402 50.2761 50.0482C51.9401 48.5762 52.2361 46.7682 51.8041 45.0882C51.2121 42.7842 50.5401 40.3602 49.2281 38.4482Z" fill="#F8F8F6"/>
<path d="M8.8999 39.088C9.4839 40.384 9.8679 41.848 10.7399 42.896C11.1799 43.432 12.5159 43.224 13.4439 43.352C13.5879 43.368 13.7319 43.392 13.8759 43.408C22.1079 44.632 28.6039 48.616 33.2439 55.568C33.5159 55.976 33.9559 56.584 34.3159 56.584C35.7079 56.576 37.1079 56.36 38.5159 56.224C36.4199 44.6 19.1239 35.064 8.8999 39.088Z" fill="#F8F8F6"/>
<path d="M53.028 29.3362C48.492 22.9922 42.236 18.7682 35.132 15.7602C30.212 13.6722 25.116 12.4162 19.708 13.0642C17.836 13.2882 16.084 13.8242 14.636 15.0402C33.108 15.5042 47.004 23.5042 56.556 39.3042C56.572 38.2562 56.732 37.0882 56.348 36.1442C55.388 33.8002 54.476 31.3602 53.028 29.3362Z" fill="#F8F8F6"/>
<path d="M57.284 26.0239C53.524 11.7119 38.244 4.82391 26.948 8.31191C39.116 10.7119 49.1 16.5119 57.284 26.0239Z" fill="#F8F8F6"/>
<path d="M12.9319 46.712C17.2999 52.256 22.8519 55.488 29.9719 56.536C27.2519 51.456 17.6679 45.96 12.9319 46.712Z" fill="#F8F8F6"/>
</g>
<defs>
<clipPath id="clip0_178_811">
<rect width="64" height="64" fill="white" transform="translate(0.5)"/>
</clipPath>
</defs>
</svg>
