<svg width="294" height="32" viewBox="0 0 294 32" fill="none" xmlns="http://www.w3.org/2000/svg">
<path d="M45.699 8.23067C45.699 12.7468 42.0436 16.409 37.5349 16.409V12.3193C40.5227 12.3193 42.7609 9.10296 40.988 5.9395C40.3632 4.82496 39.1807 4.14097 37.9047 4.14097H8.59381C7.31779 4.14097 6.13523 4.82496 5.51043 5.9395C3.73762 9.10296 5.97573 12.3193 8.96361 12.3193V16.409C4.45487 16.409 0.800537 12.7468 0.800537 8.23067C0.800537 6.74054 1.19777 5.34406 1.89267 4.14097C3.30381 1.69611 5.94221 0.0512695 8.96361 0.0512695H37.5349C40.5563 0.0512695 43.1947 1.69611 44.6058 4.14097C45.3007 5.34406 45.699 6.74054 45.699 8.23067Z" fill="#9A886C"/>
<path d="M17.1262 10.9351V31.9495H13.0452V12.0547L17.1262 10.9351Z" fill="#9A886C"/>
<path d="M25.291 8.23096H21.209V31.9498H25.291V8.23096Z" fill="#9A886C"/>
<path d="M33.4539 31.9485H29.3718V10.9351L33.4539 11.9529V31.9485Z" fill="#9A886C"/>
<path d="M248.899 18.3596L249.377 17.4415H259.66L259.917 18.3596H248.899ZM268.437 26.9166C268.535 26.9166 268.584 26.9901 268.584 27.137C268.584 27.2839 268.535 27.3573 268.437 27.3573C267.703 27.3573 266.944 27.3329 266.16 27.2839C265.401 27.2349 264.667 27.2104 263.957 27.2104C263.149 27.2104 262.439 27.2349 261.826 27.2839C261.239 27.3329 260.578 27.3573 259.843 27.3573C259.745 27.3573 259.696 27.2839 259.696 27.137C259.696 26.9901 259.745 26.9166 259.843 26.9166C260.945 26.9166 261.606 26.7208 261.826 26.329C262.047 25.9373 261.863 25.1661 261.276 24.0153L253.6 8.40707L255.106 5.94648L247.834 22.326C247.198 23.8195 247.173 24.958 247.761 25.7414C248.373 26.5249 249.401 26.9166 250.846 26.9166C250.968 26.9166 251.029 26.9901 251.029 27.137C251.029 27.2839 250.968 27.3573 250.846 27.3573C250.111 27.3573 249.438 27.3329 248.826 27.2839C248.214 27.2349 247.442 27.2104 246.512 27.2104C245.582 27.2104 244.835 27.2349 244.272 27.2839C243.733 27.3329 243.06 27.3573 242.252 27.3573C242.154 27.3573 242.105 27.2839 242.105 27.137C242.105 26.9901 242.154 26.9166 242.252 26.9166C242.913 26.9166 243.476 26.782 243.941 26.5127C244.431 26.2433 244.908 25.7537 245.374 25.0436C245.839 24.3091 246.353 23.2931 246.916 21.9954L254.812 4.18366C254.861 4.11021 254.971 4.07349 255.142 4.07349C255.314 4.07349 255.412 4.11021 255.436 4.18366L264.434 22.326C264.997 23.5012 265.499 24.4316 265.94 25.1171C266.38 25.7781 266.797 26.2433 267.188 26.5127C267.58 26.782 267.996 26.9166 268.437 26.9166Z" fill="#9A886C"/>
<path d="M238.952 24.3824C238.952 25.0924 239.013 25.631 239.136 25.9983C239.282 26.3655 239.552 26.6104 239.944 26.7328C240.335 26.8552 240.935 26.9164 241.743 26.9164C241.817 26.9164 241.853 26.9899 241.853 27.1368C241.853 27.2837 241.817 27.3571 241.743 27.3571C241.131 27.3571 240.445 27.3449 239.686 27.3204C238.927 27.2959 238.083 27.2837 237.152 27.2837C236.295 27.2837 235.475 27.2959 234.692 27.3204C233.908 27.3449 233.211 27.3571 232.598 27.3571C232.525 27.3571 232.488 27.2837 232.488 27.1368C232.488 26.9899 232.525 26.9164 232.598 26.9164C233.382 26.9164 233.982 26.8552 234.398 26.7328C234.814 26.6104 235.084 26.3655 235.206 25.9983C235.353 25.631 235.426 25.0924 235.426 24.3824V7.37856C235.426 6.66854 235.353 6.14214 235.206 5.79937C235.084 5.43212 234.814 5.18728 234.398 5.06486C233.982 4.91796 233.382 4.84451 232.598 4.84451C232.525 4.84451 232.488 4.77106 232.488 4.62416C232.488 4.47726 232.525 4.40381 232.598 4.40381C233.211 4.40381 233.908 4.42829 234.692 4.47726C235.475 4.50174 236.295 4.51398 237.152 4.51398C238.083 4.51398 238.927 4.50174 239.686 4.47726C240.47 4.42829 241.155 4.40381 241.743 4.40381C241.817 4.40381 241.853 4.47726 241.853 4.62416C241.853 4.77106 241.817 4.84451 241.743 4.84451C240.96 4.84451 240.36 4.91796 239.944 5.06486C239.552 5.21176 239.282 5.46884 239.136 5.83609C239.013 6.20335 238.952 6.74199 238.952 7.45201V24.3824Z" fill="#9A886C"/>
<path d="M218.047 27.5042C217.288 27.5042 216.345 27.4675 215.219 27.3941C214.093 27.3206 213.065 27.2839 212.134 27.2839C211.253 27.2839 210.42 27.2961 209.637 27.3206C208.854 27.3451 208.156 27.3573 207.544 27.3573C207.495 27.3573 207.47 27.2839 207.47 27.137C207.47 26.9901 207.495 26.9166 207.544 26.9166C208.327 26.9166 208.927 26.8554 209.343 26.733C209.759 26.6106 210.029 26.3658 210.151 25.9985C210.298 25.6313 210.372 25.0926 210.372 24.3826V7.37877C210.372 6.66875 210.298 6.14235 210.151 5.79958C210.029 5.43233 209.772 5.18749 209.38 5.06507C208.988 4.91817 208.388 4.84472 207.58 4.84472C207.531 4.84472 207.507 4.77127 207.507 4.62437C207.507 4.47747 207.531 4.40402 207.58 4.40402C208.217 4.40402 208.915 4.4285 209.674 4.47747C210.433 4.50195 211.253 4.51419 212.134 4.51419C212.991 4.51419 213.922 4.48971 214.925 4.44074C215.954 4.36729 216.823 4.33057 217.533 4.33057C220.104 4.33057 222.344 4.82024 224.254 5.79958C226.163 6.77892 227.645 8.11327 228.697 9.80264C229.75 11.492 230.277 13.3895 230.277 15.4951C230.277 17.3313 229.958 18.9962 229.322 20.4897C228.685 21.9587 227.792 23.2196 226.641 24.2724C225.515 25.3007 224.205 26.0964 222.711 26.6596C221.242 27.2227 219.688 27.5042 218.047 27.5042ZM217.68 26.7697C219.369 26.7697 220.863 26.3658 222.16 25.5578C223.458 24.7498 224.474 23.5746 225.209 22.0322C225.968 20.4652 226.347 18.5555 226.347 16.303C226.347 14.1974 226.004 12.3 225.319 10.6106C224.633 8.89675 223.654 7.55015 222.381 6.57081C221.132 5.56698 219.639 5.06507 217.9 5.06507C216.456 5.06507 215.415 5.19973 214.779 5.46905C214.166 5.73837 213.86 6.39943 213.86 7.45222V23.9786C213.86 24.9335 214.105 25.6435 214.595 26.1087C215.085 26.5494 216.113 26.7697 217.68 26.7697Z" fill="#9A886C"/>
<path d="M201.908 27.3572C201.54 27.3572 200.928 26.892 200.071 25.9616C199.215 25.0313 198.174 23.6969 196.95 21.9586C195.75 20.1958 194.404 18.1024 192.91 15.6786L195.848 14.7971C197.831 17.7597 199.521 20.1346 200.916 21.9219C202.336 23.6847 203.585 24.9578 204.662 25.7413C205.764 26.5248 206.817 26.9165 207.821 26.9165C207.869 26.9165 207.894 26.99 207.894 27.1369C207.894 27.2838 207.869 27.3572 207.821 27.3572C206.278 27.3572 205.017 27.3572 204.038 27.3572C203.083 27.3572 202.373 27.3572 201.908 27.3572ZM193.571 4.2937C195.701 4.2937 197.342 4.72216 198.492 5.57909C199.667 6.41153 200.255 7.56226 200.255 9.03127C200.255 10.4268 199.851 11.6755 199.043 12.7773C198.26 13.879 197.231 14.7359 195.958 15.348C194.71 15.9601 193.363 16.2662 191.918 16.2662C191.625 16.2662 191.306 16.2662 190.964 16.2662C190.621 16.2417 190.315 16.2172 190.045 16.1927V24.3825C190.045 25.0925 190.107 25.6311 190.229 25.9984C190.351 26.3656 190.609 26.6105 191 26.7329C191.417 26.8553 192.016 26.9165 192.8 26.9165C192.873 26.9165 192.91 26.99 192.91 27.1369C192.91 27.2838 192.873 27.3572 192.8 27.3572C192.188 27.3572 191.502 27.345 190.743 27.3205C189.984 27.296 189.152 27.2838 188.246 27.2838C187.389 27.2838 186.569 27.296 185.785 27.3205C185.002 27.345 184.304 27.3572 183.692 27.3572C183.619 27.3572 183.582 27.2838 183.582 27.1369C183.582 26.99 183.619 26.9165 183.692 26.9165C184.5 26.9165 185.1 26.8553 185.492 26.7329C185.883 26.6105 186.153 26.3656 186.299 25.9984C186.446 25.6311 186.52 25.0925 186.52 24.3825V7.37863C186.52 6.66861 186.446 6.14221 186.299 5.79944C186.177 5.43219 185.92 5.18735 185.528 5.06493C185.136 4.91803 184.537 4.84458 183.729 4.84458C183.68 4.84458 183.655 4.77113 183.655 4.62423C183.655 4.47733 183.68 4.40388 183.729 4.40388C184.341 4.40388 185.026 4.42836 185.785 4.47733C186.569 4.50181 187.389 4.51405 188.246 4.51405C189.029 4.51405 189.911 4.47733 190.89 4.40388C191.869 4.33043 192.763 4.2937 193.571 4.2937ZM196.619 10.3167C196.619 8.89661 196.448 7.80709 196.105 7.0481C195.787 6.26463 195.334 5.72599 194.746 5.43219C194.159 5.13838 193.473 4.99148 192.69 4.99148C191.735 4.99148 191.049 5.17511 190.633 5.54236C190.241 5.88513 190.045 6.5217 190.045 7.45208V15.2011C190.388 15.2501 190.755 15.2868 191.147 15.3113C191.539 15.3358 191.882 15.348 192.176 15.348C193.816 15.348 194.967 14.944 195.628 14.1361C196.289 13.3036 196.619 12.0305 196.619 10.3167Z" fill="#9A886C"/>
<path d="M168.576 27.798C166.813 27.798 165.209 27.492 163.765 26.8799C162.344 26.2433 161.12 25.3741 160.092 24.2724C159.088 23.1706 158.305 21.9097 157.742 20.4897C157.203 19.0451 156.934 17.5149 156.934 15.899C156.934 13.9158 157.313 12.1775 158.072 10.684C158.856 9.19051 159.884 7.95409 161.157 6.97475C162.43 5.97093 163.826 5.22418 165.344 4.73451C166.862 4.24484 168.367 4 169.861 4C171.673 4 173.289 4.33053 174.709 4.99158C176.153 5.62816 177.377 6.49732 178.381 7.59908C179.385 8.70084 180.144 9.9495 180.658 11.3451C181.197 12.7406 181.466 14.1729 181.466 15.6419C181.466 17.3558 181.123 18.9472 180.438 20.4162C179.752 21.8852 178.81 23.1706 177.61 24.2724C176.435 25.3741 175.064 26.2433 173.497 26.8799C171.954 27.492 170.314 27.798 168.576 27.798ZM169.824 26.9166C171.293 26.9166 172.603 26.5249 173.754 25.7414C174.929 24.9579 175.847 23.8072 176.508 22.2892C177.194 20.7467 177.537 18.886 177.537 16.707C177.537 14.43 177.169 12.4101 176.435 10.6473C175.7 8.88447 174.647 7.50115 173.276 6.49732C171.905 5.46901 170.265 4.95486 168.355 4.95486C165.98 4.95486 164.132 5.81178 162.81 7.52563C161.512 9.21499 160.863 11.5654 160.863 14.5769C160.863 16.3397 161.084 17.9801 161.524 19.4981C161.965 20.9916 162.577 22.3014 163.361 23.4277C164.168 24.5539 165.111 25.4231 166.188 26.0352C167.29 26.6228 168.502 26.9166 169.824 26.9166Z" fill="#9A886C"/>
<path d="M146.628 4C147.485 4 148.305 4.04897 149.089 4.1469C149.897 4.22035 150.643 4.34277 151.329 4.51415C152.039 4.66106 152.676 4.86917 153.239 5.13849C153.435 5.23642 153.557 5.33435 153.606 5.43229C153.679 5.53022 153.728 5.71385 153.753 5.98317L154.194 10.8309C154.194 10.9044 154.132 10.9533 154.01 10.9778C153.888 11.0023 153.802 10.9656 153.753 10.8676C153.116 8.88447 152.174 7.36649 150.925 6.31369C149.676 5.23642 148.109 4.69778 146.224 4.69778C144.412 4.69778 142.809 5.15073 141.413 6.05662C140.018 6.93803 138.928 8.21117 138.145 9.87605C137.361 11.5164 136.969 13.4751 136.969 15.7521C136.969 17.417 137.202 18.9472 137.667 20.3428C138.157 21.7383 138.83 22.938 139.687 23.9418C140.568 24.9457 141.585 25.7291 142.735 26.2923C143.886 26.8309 145.147 27.1002 146.518 27.1002C148.354 27.1002 149.86 26.6228 151.035 25.6679C152.21 24.7131 153.239 23.2196 154.12 21.1875C154.145 21.114 154.218 21.0895 154.34 21.114C154.463 21.1385 154.524 21.1752 154.524 21.2242L154.047 25.5945C154.022 25.8883 153.973 26.0842 153.9 26.1821C153.851 26.2555 153.728 26.3412 153.533 26.4392C152.333 26.9288 151.158 27.2716 150.007 27.4675C148.856 27.6878 147.681 27.798 146.481 27.798C143.861 27.798 141.536 27.3083 139.503 26.329C137.471 25.3252 135.868 23.9296 134.692 22.1423C133.542 20.3305 132.966 18.2617 132.966 15.9357C132.966 14.1729 133.309 12.557 133.995 11.088C134.68 9.61897 135.635 8.35807 136.859 7.30528C138.108 6.25249 139.565 5.44453 141.23 4.88141C142.894 4.2938 144.694 4 146.628 4Z" fill="#9A886C"/>
<path d="M109.961 22.9134V5.24849L110.952 5.32194V22.9134C110.952 24.211 111.209 25.2026 111.724 25.8881C112.238 26.5737 112.972 26.9164 113.927 26.9164C114.001 26.9164 114.037 26.9899 114.037 27.1368C114.037 27.2837 114.001 27.3571 113.927 27.3571C113.413 27.3571 112.874 27.3449 112.311 27.3204C111.773 27.2959 111.173 27.2837 110.512 27.2837C109.802 27.2837 109.116 27.2959 108.455 27.3204C107.818 27.3449 107.219 27.3571 106.655 27.3571C106.582 27.3571 106.545 27.2837 106.545 27.1368C106.545 26.9899 106.582 26.9164 106.655 26.9164C107.733 26.9164 108.553 26.5737 109.116 25.8881C109.679 25.2026 109.961 24.211 109.961 22.9134ZM128.617 27.8713C128.617 27.9447 128.556 27.9815 128.434 27.9815C128.311 28.006 128.226 28.006 128.177 27.9815L110.512 7.41528C109.63 6.41146 108.871 5.73816 108.235 5.39539C107.623 5.02814 107.023 4.84451 106.435 4.84451C106.362 4.84451 106.325 4.77106 106.325 4.62416C106.325 4.47726 106.362 4.40381 106.435 4.40381C106.9 4.40381 107.378 4.41605 107.867 4.44053C108.357 4.46502 108.81 4.47726 109.226 4.47726C109.961 4.47726 110.622 4.46502 111.209 4.44053C111.822 4.41605 112.287 4.40381 112.605 4.40381C112.923 4.40381 113.156 4.55071 113.303 4.84451C113.45 5.11383 113.817 5.6035 114.405 6.31352L128.323 22.693L128.617 27.8713ZM128.617 8.8843V27.8713L127.626 26.7695V8.8843C127.626 7.58667 127.369 6.59509 126.854 5.90955C126.365 5.19952 125.63 4.84451 124.651 4.84451C124.602 4.84451 124.577 4.77106 124.577 4.62416C124.577 4.47726 124.602 4.40381 124.651 4.40381C125.165 4.40381 125.704 4.42829 126.267 4.47726C126.83 4.50174 127.442 4.51398 128.103 4.51398C128.74 4.51398 129.364 4.50174 129.976 4.47726C130.588 4.42829 131.151 4.40381 131.665 4.40381C131.739 4.40381 131.776 4.47726 131.776 4.62416C131.776 4.77106 131.739 4.84451 131.665 4.84451C130.686 4.84451 129.927 5.19952 129.388 5.90955C128.874 6.59509 128.617 7.58667 128.617 8.8843Z" fill="#9A886C"/>
<path d="M91.7957 27.798C90.0329 27.798 88.4293 27.492 86.9847 26.8799C85.5647 26.2433 84.3405 25.3741 83.3122 24.2724C82.3084 23.1706 81.5249 21.9097 80.9618 20.4897C80.4231 19.0451 80.1538 17.5149 80.1538 15.899C80.1538 13.9158 80.5333 12.1775 81.2923 10.684C82.0758 9.19051 83.1041 7.95409 84.3772 6.97475C85.6504 5.97093 87.0459 5.22418 88.5639 4.73451C90.0819 4.24484 91.5876 4 93.0811 4C94.8929 4 96.5088 4.33053 97.9289 4.99158C99.3734 5.62816 100.598 6.49732 101.601 7.59908C102.605 8.70084 103.364 9.9495 103.878 11.3451C104.417 12.7406 104.686 14.1729 104.686 15.6419C104.686 17.3558 104.344 18.9472 103.658 20.4162C102.972 21.8852 102.03 23.1706 100.83 24.2724C99.655 25.3741 98.2839 26.2433 96.7169 26.8799C95.1745 27.492 93.5341 27.798 91.7957 27.798ZM93.0444 26.9166C94.5134 26.9166 95.8233 26.5249 96.974 25.7414C98.1492 24.9579 99.0674 23.8072 99.7284 22.2892C100.414 20.7467 100.757 18.886 100.757 16.707C100.757 14.43 100.389 12.4101 99.655 10.6473C98.9205 8.88447 97.8677 7.50115 96.4966 6.49732C95.1255 5.46901 93.4851 4.95486 91.5754 4.95486C89.2005 4.95486 87.352 5.81178 86.0299 7.52563C84.7322 9.21499 84.0834 11.5654 84.0834 14.5769C84.0834 16.3397 84.3038 17.9801 84.7445 19.4981C85.1852 20.9916 85.7973 22.3014 86.5807 23.4277C87.3887 24.5539 88.3313 25.4231 89.4086 26.0352C90.5104 26.6228 91.7223 26.9166 93.0444 26.9166Z" fill="#9A886C"/>
<path d="M69.8476 4C70.7045 4 71.5247 4.04897 72.3082 4.1469C73.1162 4.22035 73.8629 4.34277 74.5485 4.51415C75.2585 4.66106 75.8951 4.86917 76.4582 5.13849C76.654 5.23642 76.7765 5.33435 76.8254 5.43229C76.8989 5.53022 76.9479 5.71385 76.9723 5.98317L77.413 10.8309C77.413 10.9044 77.3518 10.9533 77.2294 10.9778C77.107 11.0023 77.0213 10.9656 76.9723 10.8676C76.3358 8.88447 75.3931 7.36649 74.1445 6.31369C72.8958 5.23642 71.3289 4.69778 69.4436 4.69778C67.6319 4.69778 66.0282 5.15073 64.6326 6.05662C63.2371 6.93803 62.1475 8.21117 61.3641 9.87605C60.5806 11.5164 60.1889 13.4751 60.1889 15.7521C60.1889 17.417 60.4214 18.9472 60.8866 20.3428C61.3763 21.7383 62.0496 22.938 62.9065 23.9418C63.7879 24.9457 64.804 25.7291 65.9547 26.2923C67.1055 26.8309 68.3664 27.1002 69.7374 27.1002C71.5737 27.1002 73.0795 26.6228 74.2547 25.6679C75.4299 24.7131 76.4582 23.2196 77.3396 21.1875C77.3641 21.114 77.4375 21.0895 77.5599 21.114C77.6824 21.1385 77.7436 21.1752 77.7436 21.2242L77.2661 25.5945C77.2417 25.8883 77.1927 26.0842 77.1192 26.1821C77.0703 26.2555 76.9479 26.3412 76.752 26.4392C75.5523 26.9288 74.3771 27.2716 73.2264 27.4675C72.0756 27.6878 70.9004 27.798 69.7007 27.798C67.081 27.798 64.755 27.3083 62.7229 26.329C60.6908 25.3252 59.0871 23.9296 57.9119 22.1423C56.7612 20.3305 56.1858 18.2617 56.1858 15.9357C56.1858 14.1729 56.5286 12.557 57.2141 11.088C57.8996 9.61897 58.8545 8.35807 60.0787 7.30528C61.3273 6.25249 62.7841 5.44453 64.449 4.88141C66.1139 4.2938 67.9134 4 69.8476 4Z" fill="#9A886C"/>
<path d="M285.922 0C289.898 6.25699e-05 293.122 3.22378 293.122 7.2002C293.122 11.1765 289.898 14.4003 285.922 14.4004H275.533C271.557 14.4004 268.333 11.1766 268.333 7.2002C268.333 3.22375 271.557 0 275.533 0H285.922ZM281.561 4.7998C281.075 4.79983 280.667 4.9076 280.336 5.12305C280.005 5.33852 279.758 5.62925 279.595 5.99512C279.436 6.357 279.356 6.75813 279.356 7.19727C279.356 7.63615 279.436 8.03852 279.595 8.4043C279.758 8.76611 280.005 9.05681 280.336 9.27637C280.667 9.49184 281.075 9.59958 281.561 9.59961C282.103 9.59961 282.542 9.4637 282.877 9.19141C283.212 8.91903 283.416 8.54494 283.489 8.06934H282.7C282.651 8.35796 282.524 8.57989 282.32 8.73438C282.12 8.88473 281.863 8.9599 281.549 8.95996C281.083 8.95996 280.724 8.79876 280.471 8.47754C280.222 8.1564 280.097 7.7297 280.097 7.19727C280.097 6.6688 280.222 6.24584 280.471 5.92871C280.724 5.60749 281.083 5.44629 281.549 5.44629C281.859 5.44634 282.116 5.5179 282.32 5.66016C282.524 5.79834 282.651 5.99326 282.7 6.24512H283.489C283.42 5.80618 283.216 5.45643 282.877 5.19629C282.538 4.93215 282.099 4.7998 281.561 4.7998ZM273.931 4.87305V9.52637H274.653V6.12988C274.653 5.92262 274.642 5.69874 274.622 5.45898L274.721 5.44629C274.762 5.70245 274.813 5.93065 274.874 6.12988L275.927 9.52637H276.638L277.679 6.12988C277.748 5.90625 277.803 5.67806 277.844 5.44629L277.941 5.45898C277.917 5.69872 277.905 5.92264 277.905 6.12988V9.52637H278.627V4.87305H277.391L276.447 8.0625C276.406 8.19257 276.376 8.31489 276.355 8.42871C276.339 8.54256 276.331 8.67931 276.331 8.83789H276.233C276.233 8.67931 276.223 8.54435 276.202 8.43457C276.182 8.32488 276.151 8.20058 276.11 8.0625L275.168 4.87305H273.931ZM284.162 9.52637H284.885V7.61133H286.043C286.492 7.61125 286.851 7.48901 287.12 7.24512C287.389 6.9971 287.524 6.6575 287.524 6.22656C287.524 5.7757 287.392 5.4384 287.127 5.21484C286.862 4.98721 286.5 4.87311 286.043 4.87305H284.162V9.52637ZM285.944 5.51953C286.222 5.51953 286.434 5.58297 286.581 5.70898C286.732 5.83499 286.808 6.01346 286.808 6.24512C286.808 6.48502 286.732 6.6679 286.581 6.79395C286.434 6.91995 286.222 6.9834 285.944 6.9834H284.885V5.51953H285.944Z" fill="#708238"/>
</svg>
