<svg width="5490" height="600" viewBox="0 0 5490 600" fill="none" xmlns="http://www.w3.org/2000/svg">
<path d="M843.319 154.232C843.319 238.963 774.739 307.672 690.148 307.672V230.943C746.205 230.943 788.196 170.598 754.935 111.246C743.213 90.3356 721.026 77.5028 697.086 77.5028H147.167C123.226 77.5028 101.04 90.3356 89.3174 111.246C56.0565 170.598 98.0472 230.943 154.105 230.943V307.672C69.5134 307.672 0.952148 238.963 0.952148 154.232C0.952148 126.275 8.40487 100.075 21.4424 77.5028C47.9176 31.6332 97.4182 0.773438 154.105 0.773438H690.148C746.834 0.773438 796.335 31.6332 822.81 77.5028C835.848 100.075 843.319 126.275 843.319 154.232Z" fill="#9A886C"/>
<path d="M537.018 548.508L537.018 154.243L613.585 154.243L613.585 527.502L537.018 548.508Z" fill="#9A886C"/>
<path d="M383.834 599.243L460.42 599.243L460.42 154.239L383.834 154.239L383.834 599.243Z" fill="#9A886C"/>
<path d="M230.685 154.262L307.271 154.262L307.271 548.508L230.685 529.411L230.685 154.262Z" fill="#9A886C"/>
<path d="M4655.68 344.246L4664.64 327.032H4857.57L4862.39 344.246H4655.68ZM5022.25 504.69C5024.08 504.69 5025 506.067 5025 508.822C5025 511.576 5024.08 512.953 5022.25 512.953C5008.47 512.953 4994.23 512.494 4979.53 511.576C4965.29 510.658 4951.51 510.199 4938.19 510.199C4923.03 510.199 4909.71 510.658 4898.22 511.576C4887.2 512.494 4874.79 512.953 4861.01 512.953C4859.18 512.953 4858.26 511.576 4858.26 508.822C4858.26 506.067 4859.18 504.69 4861.01 504.69C4881.69 504.69 4894.09 501.018 4898.22 493.673C4902.36 486.327 4898.91 471.867 4887.89 450.291L4743.88 157.636L4772.13 111.5L4635.7 418.615C4623.76 446.618 4623.3 467.965 4634.32 482.655C4645.81 497.345 4665.1 504.69 4692.2 504.69C4694.5 504.69 4695.65 506.067 4695.65 508.822C4695.65 511.576 4694.5 512.953 4692.2 512.953C4678.42 512.953 4665.79 512.494 4654.31 511.576C4642.82 510.658 4628.35 510.199 4610.9 510.199C4593.44 510.199 4579.43 510.658 4568.87 511.576C4558.76 512.494 4546.13 512.953 4530.97 512.953C4529.13 512.953 4528.21 511.576 4528.21 508.822C4528.21 506.067 4529.13 504.69 4530.97 504.69C4543.37 504.69 4553.94 502.165 4562.67 497.116C4571.85 492.066 4580.81 482.885 4589.54 469.572C4598.26 455.8 4607.91 436.748 4618.48 412.418L4766.62 78.4471C4767.54 77.0699 4769.6 76.3813 4772.82 76.3813C4776.03 76.3813 4777.87 77.0699 4778.33 78.4471L4947.14 418.615C4957.71 440.65 4967.12 458.095 4975.39 470.949C4983.66 483.344 4991.47 492.066 4998.82 497.116C5006.17 502.165 5013.98 504.69 5022.25 504.69Z" fill="#9A886C"/>
<path d="M4469.06 457.176C4469.06 470.489 4470.21 480.588 4472.5 487.474C4475.26 494.36 4480.31 498.951 4487.66 501.246C4495.01 503.541 4506.26 504.689 4521.42 504.689C4522.8 504.689 4523.49 506.066 4523.49 508.821C4523.49 511.575 4522.8 512.952 4521.42 512.952C4509.94 512.952 4497.08 512.723 4482.84 512.264C4468.6 511.805 4452.75 511.575 4435.29 511.575C4419.22 511.575 4403.83 511.805 4389.13 512.264C4374.43 512.723 4361.34 512.952 4349.86 512.952C4348.48 512.952 4347.79 511.575 4347.79 508.821C4347.79 506.066 4348.48 504.689 4349.86 504.689C4364.55 504.689 4375.81 503.541 4383.62 501.246C4391.43 498.951 4396.48 494.36 4398.78 487.474C4401.53 480.588 4402.91 470.489 4402.91 457.176V138.354C4402.91 125.041 4401.53 115.171 4398.78 108.744C4396.48 101.858 4391.43 97.2677 4383.62 94.9724C4375.81 92.218 4364.55 90.8408 4349.86 90.8408C4348.48 90.8408 4347.79 89.4636 4347.79 86.7092C4347.79 83.9548 4348.48 82.5776 4349.86 82.5776C4361.34 82.5776 4374.43 83.0367 4389.13 83.9548C4403.83 84.4139 4419.22 84.6434 4435.29 84.6434C4452.75 84.6434 4468.6 84.4139 4482.84 83.9548C4497.54 83.0367 4510.4 82.5776 4521.42 82.5776C4522.8 82.5776 4523.49 83.9548 4523.49 86.7092C4523.49 89.4636 4522.8 90.8408 4521.42 90.8408C4506.72 90.8408 4495.47 92.218 4487.66 94.9724C4480.31 97.7268 4475.26 102.547 4472.5 109.433C4470.21 116.319 4469.06 126.418 4469.06 139.731V457.176Z" fill="#9A886C"/>
<path d="M4076.85 515.707C4062.61 515.707 4044.92 515.018 4023.79 513.641C4002.66 512.264 3983.37 511.575 3965.91 511.575C3949.38 511.575 3933.76 511.805 3919.06 512.264C3904.36 512.723 3891.27 512.952 3879.79 512.952C3878.87 512.952 3878.41 511.575 3878.41 508.821C3878.41 506.067 3878.87 504.689 3879.79 504.689C3894.49 504.689 3905.74 503.542 3913.55 501.246C3921.36 498.951 3926.41 494.36 3928.71 487.474C3931.46 480.588 3932.84 470.489 3932.84 457.176V138.354C3932.84 125.042 3931.46 115.172 3928.71 108.745C3926.41 101.859 3921.59 97.268 3914.24 94.9727C3906.89 92.2183 3895.63 90.8411 3880.48 90.8411C3879.56 90.8411 3879.1 89.4639 3879.1 86.7095C3879.1 83.9551 3879.56 82.5779 3880.48 82.5779C3892.42 82.5779 3905.51 83.037 3919.75 83.9551C3933.99 84.4141 3949.38 84.6437 3965.91 84.6437C3981.99 84.6437 3999.45 84.1846 4018.28 83.2665C4037.57 81.8893 4053.88 81.2007 4067.2 81.2007C4115.43 81.2007 4157.46 90.382 4193.29 108.745C4229.12 127.107 4256.91 152.126 4276.67 183.802C4296.42 215.478 4306.29 251.055 4306.29 290.535C4306.29 324.965 4300.32 356.181 4288.38 384.184C4276.44 411.728 4259.67 435.37 4238.08 455.11C4216.95 474.391 4192.38 489.311 4164.35 499.869C4136.79 510.428 4107.62 515.707 4076.85 515.707ZM4069.96 501.935C4101.65 501.935 4129.67 494.36 4154.02 479.211C4178.36 464.062 4197.43 442.027 4211.21 413.106C4225.45 383.725 4232.57 347.918 4232.57 305.684C4232.57 266.204 4226.14 230.627 4213.28 198.951C4200.41 166.817 4182.04 141.568 4158.15 123.205C4134.73 104.384 4106.71 94.9727 4074.09 94.9727C4046.99 94.9727 4027.47 97.4975 4015.52 102.547C4004.04 107.597 3998.3 119.992 3998.3 139.732V449.601C3998.3 467.505 4002.89 480.818 4012.08 489.54C4021.27 497.803 4040.56 501.935 4069.96 501.935Z" fill="#9A886C"/>
<path d="M3774.05 512.953C3767.16 512.953 3755.68 504.23 3739.6 486.786C3723.52 469.341 3704 444.322 3681.03 411.729C3658.52 378.676 3633.26 339.426 3605.24 293.978L3660.36 277.452C3697.57 332.999 3729.26 377.528 3755.45 411.04C3782.09 444.093 3805.51 467.964 3825.73 482.654C3846.4 497.344 3866.15 504.689 3884.98 504.689C3885.9 504.689 3886.36 506.067 3886.36 508.821C3886.36 511.575 3885.9 512.953 3884.98 512.953C3856.04 512.953 3832.39 512.953 3814.01 512.953C3796.1 512.953 3782.78 512.953 3774.05 512.953ZM3617.64 80.5122C3657.6 80.5122 3688.38 88.5459 3709.97 104.613C3732.02 120.221 3743.04 141.798 3743.04 169.342C3743.04 195.508 3735.46 218.921 3720.31 239.579C3705.61 260.237 3686.31 276.304 3662.43 287.781C3639 299.257 3613.74 304.996 3586.63 304.996C3581.12 304.996 3575.15 304.996 3568.72 304.996C3562.29 304.537 3556.55 304.077 3551.49 303.618V457.176C3551.49 470.489 3552.64 480.588 3554.94 487.474C3557.24 494.36 3562.06 498.951 3569.41 501.246C3577.22 503.542 3588.47 504.689 3603.17 504.689C3604.55 504.689 3605.24 506.067 3605.24 508.821C3605.24 511.575 3604.55 512.953 3603.17 512.953C3591.69 512.953 3578.82 512.723 3564.58 512.264C3550.35 511.805 3534.73 511.575 3517.73 511.575C3501.65 511.575 3486.27 511.805 3471.57 512.264C3456.87 512.723 3443.78 512.953 3432.29 512.953C3430.91 512.953 3430.22 511.575 3430.22 508.821C3430.22 506.067 3430.91 504.689 3432.29 504.689C3447.45 504.689 3458.7 503.542 3466.05 501.246C3473.4 498.951 3478.46 494.36 3481.21 487.474C3483.97 480.588 3485.35 470.489 3485.35 457.176V138.355C3485.35 125.042 3483.97 115.172 3481.21 108.745C3478.92 101.859 3474.09 97.2681 3466.74 94.9728C3459.39 92.2184 3448.14 90.8412 3432.98 90.8412C3432.06 90.8412 3431.6 89.464 3431.6 86.7096C3431.6 83.9552 3432.06 82.578 3432.98 82.578C3444.46 82.578 3457.33 83.0371 3471.57 83.9552C3486.27 84.4143 3501.65 84.6438 3517.73 84.6438C3532.43 84.6438 3548.97 83.9552 3567.34 82.578C3585.72 81.2008 3602.48 80.5122 3617.64 80.5122ZM3674.83 193.442C3674.83 166.817 3671.61 146.388 3665.18 132.157C3659.21 117.467 3650.71 107.368 3639.69 101.859C3628.66 96.35 3615.8 93.5956 3601.1 93.5956C3583.19 93.5956 3570.33 97.0386 3562.52 103.925C3555.17 110.351 3551.49 122.287 3551.49 139.732V285.026C3557.92 285.944 3564.81 286.633 3572.16 287.092C3579.51 287.551 3585.94 287.781 3591.46 287.781C3622.23 287.781 3643.82 280.206 3656.23 265.057C3668.63 249.449 3674.83 225.577 3674.83 193.442Z" fill="#9A886C"/>
<path d="M3148.68 521.217C3115.61 521.217 3085.52 515.478 3058.42 504.002C3031.77 492.066 3008.81 475.769 2989.51 455.111C2970.68 434.453 2955.98 410.811 2945.42 384.185C2935.31 357.101 2930.26 328.409 2930.26 298.111C2930.26 260.926 2937.38 228.333 2951.62 200.329C2966.32 172.326 2985.61 149.144 3009.5 130.781C3033.38 111.959 3059.57 97.9577 3088.04 88.7764C3116.52 79.5951 3144.77 75.0044 3172.8 75.0044C3206.79 75.0044 3237.1 81.2018 3263.75 93.5966C3290.85 105.532 3313.82 121.829 3332.65 142.487C3351.48 163.145 3365.72 186.557 3375.37 212.724C3385.48 238.891 3390.53 265.746 3390.53 293.29C3390.53 325.425 3384.1 355.264 3371.24 382.808C3358.37 410.352 3340.69 434.453 3318.18 455.111C3296.13 475.769 3270.41 492.066 3241.01 504.002C3212.07 515.478 3181.29 521.217 3148.68 521.217ZM3172.11 504.69C3199.67 504.69 3224.24 497.345 3245.83 482.655C3267.88 467.965 3285.11 446.389 3297.51 417.927C3310.37 389.006 3316.8 354.117 3316.8 313.26C3316.8 270.567 3309.91 232.694 3296.13 199.641C3282.35 166.588 3262.6 140.651 3236.88 121.829C3211.15 102.548 3180.37 92.908 3144.55 92.908C3099.99 92.908 3065.31 108.975 3040.5 141.11C3016.16 172.785 3003.98 216.856 3003.98 273.321C3003.98 306.374 3008.12 337.131 3016.39 365.593C3024.65 393.596 3036.14 418.156 3050.84 439.273C3066 460.39 3083.68 476.687 3103.89 488.164C3124.56 499.182 3147.3 504.69 3172.11 504.69Z" fill="#9A886C"/>
<path d="M2736.91 75.0044C2752.99 75.0044 2768.38 75.9225 2783.08 77.7588C2798.24 79.136 2812.25 81.4313 2825.11 84.6448C2838.43 87.3992 2850.37 91.3012 2860.94 96.351C2864.61 98.1873 2866.91 100.024 2867.83 101.86C2869.21 103.696 2870.13 107.139 2870.58 112.189L2878.85 203.084C2878.85 204.461 2877.7 205.379 2875.41 205.838C2873.11 206.297 2871.5 205.609 2870.58 203.772C2858.64 166.588 2840.96 138.126 2817.53 118.386C2794.1 98.1872 2764.7 88.0878 2729.33 88.0878C2695.34 88.0878 2665.25 96.5805 2639.07 113.566C2612.89 130.092 2592.45 153.964 2577.75 185.18C2563.05 215.938 2555.7 252.663 2555.7 295.356C2555.7 326.573 2560.06 355.264 2568.79 381.431C2577.98 407.598 2590.61 430.092 2606.69 448.914C2623.22 467.736 2642.29 482.426 2663.88 492.984C2685.47 503.084 2709.12 508.133 2734.85 508.133C2769.3 508.133 2797.55 499.182 2819.6 481.278C2841.65 463.374 2860.94 435.371 2877.47 397.269C2877.93 395.892 2879.31 395.433 2881.61 395.892C2883.91 396.351 2885.05 397.039 2885.05 397.958L2876.1 479.901C2875.64 485.41 2874.72 489.082 2873.34 490.918C2872.42 492.296 2870.13 493.902 2866.45 495.739C2843.94 504.92 2821.89 511.347 2800.3 515.019C2778.71 519.151 2756.67 521.217 2734.16 521.217C2685.01 521.217 2641.37 512.035 2603.24 493.673C2565.12 474.851 2535.03 448.684 2512.98 415.172C2491.39 381.202 2480.59 342.41 2480.59 298.799C2480.59 265.746 2487.03 235.448 2499.89 207.904C2512.75 180.36 2530.66 156.718 2553.63 136.978C2577.06 117.238 2604.39 102.089 2635.63 91.5308C2666.86 80.5132 2700.62 75.0044 2736.91 75.0044Z" fill="#9A886C"/>
<path d="M2048.97 429.632V98.4154L2067.58 99.7926V429.632C2067.58 453.962 2072.4 472.554 2082.05 485.408C2091.69 498.262 2105.48 504.689 2123.39 504.689C2124.77 504.689 2125.46 506.066 2125.46 508.821C2125.46 511.575 2124.77 512.952 2123.39 512.952C2113.74 512.952 2103.64 512.723 2093.07 512.264C2082.97 511.805 2071.71 511.575 2059.31 511.575C2045.99 511.575 2033.13 511.805 2020.72 512.264C2008.78 512.723 1997.53 512.952 1986.96 512.952C1985.58 512.952 1984.9 511.575 1984.9 508.821C1984.9 506.066 1985.58 504.689 1986.96 504.689C2007.17 504.689 2022.56 498.262 2033.13 485.408C2043.69 472.554 2048.97 453.962 2048.97 429.632ZM2399 522.593C2399 523.97 2397.85 524.658 2395.56 524.658C2393.26 525.118 2391.65 525.118 2390.73 524.658L2059.31 139.043C2042.77 120.221 2028.53 107.597 2016.59 101.17C2005.11 94.2838 1993.85 90.8408 1982.83 90.8408C1981.45 90.8408 1980.76 89.4636 1980.76 86.7092C1980.76 83.9548 1981.45 82.5776 1982.83 82.5776C1991.56 82.5776 2000.51 82.8072 2009.7 83.2662C2018.89 83.7253 2027.39 83.9548 2035.19 83.9548C2048.97 83.9548 2061.38 83.7253 2072.4 83.2662C2083.89 82.8072 2092.61 82.5776 2098.58 82.5776C2104.56 82.5776 2108.92 85.332 2111.68 90.8408C2114.43 95.8905 2121.32 105.072 2132.35 118.385L2393.49 425.5L2399 522.593ZM2399 166.587V522.593L2380.4 501.935V166.587C2380.4 142.256 2375.57 123.664 2365.93 110.81C2356.74 97.4973 2342.96 90.8408 2324.59 90.8408C2323.67 90.8408 2323.21 89.4636 2323.21 86.7092C2323.21 83.9548 2323.67 82.5776 2324.59 82.5776C2334.23 82.5776 2344.34 83.0367 2354.9 83.9548C2365.47 84.4139 2376.95 84.6434 2389.35 84.6434C2401.3 84.6434 2413.01 84.4139 2424.5 83.9548C2435.98 83.0367 2446.54 82.5776 2456.19 82.5776C2457.57 82.5776 2458.26 83.9548 2458.26 86.7092C2458.26 89.4636 2457.57 90.8408 2456.19 90.8408C2437.82 90.8408 2423.58 97.4973 2413.47 110.81C2403.82 123.664 2399 142.256 2399 166.587Z" fill="#9A886C"/>
<path d="M1708.17 521.217C1675.09 521.217 1645.01 515.478 1617.9 504.002C1591.26 492.066 1568.29 475.769 1549 455.111C1530.17 434.453 1515.47 410.811 1504.9 384.185C1494.8 357.101 1489.74 328.409 1489.74 298.111C1489.74 260.926 1496.86 228.333 1511.1 200.329C1525.8 172.326 1545.1 149.144 1568.98 130.781C1592.87 111.959 1619.05 97.9577 1647.53 88.7764C1676.01 79.5951 1704.26 75.0044 1732.28 75.0044C1766.27 75.0044 1796.59 81.2018 1823.23 93.5966C1850.34 105.532 1873.3 121.829 1892.14 142.487C1910.97 163.145 1925.21 186.557 1934.86 212.724C1944.96 238.891 1950.02 265.746 1950.02 293.29C1950.02 325.425 1943.58 355.264 1930.72 382.808C1917.86 410.352 1900.18 434.453 1877.67 455.111C1855.62 475.769 1829.89 492.066 1800.5 504.002C1771.56 515.478 1740.78 521.217 1708.17 521.217ZM1731.59 504.69C1759.15 504.69 1783.73 497.345 1805.32 482.655C1827.37 467.965 1844.59 446.389 1857 417.927C1869.86 389.006 1876.29 354.117 1876.29 313.26C1876.29 270.567 1869.4 232.694 1855.62 199.641C1841.84 166.588 1822.09 140.651 1796.36 121.829C1770.64 102.548 1739.86 92.908 1704.03 92.908C1659.48 92.908 1624.79 108.975 1599.99 141.11C1575.64 172.785 1563.47 216.856 1563.47 273.321C1563.47 306.374 1567.6 337.131 1575.87 365.593C1584.14 393.596 1595.63 418.156 1610.32 439.273C1625.48 460.39 1643.17 476.687 1663.38 488.164C1684.05 499.182 1706.79 504.69 1731.59 504.69Z" fill="#9A886C"/>
<path d="M1296.38 75.0044C1312.46 75.0044 1327.85 75.9225 1342.55 77.7588C1357.71 79.136 1371.72 81.4313 1384.58 84.6448C1397.9 87.3992 1409.84 91.3012 1420.41 96.351C1424.08 98.1873 1426.38 100.024 1427.3 101.86C1428.68 103.696 1429.6 107.139 1430.06 112.189L1438.32 203.084C1438.32 204.461 1437.18 205.379 1434.88 205.838C1432.58 206.297 1430.97 205.609 1430.06 203.772C1418.11 166.588 1400.43 138.126 1377 118.386C1353.57 98.1872 1324.18 88.0878 1288.81 88.0878C1254.81 88.0878 1224.73 96.5805 1198.54 113.566C1172.36 130.092 1151.92 153.964 1137.22 185.18C1122.52 215.938 1115.17 252.663 1115.17 295.356C1115.17 326.573 1119.53 355.264 1128.26 381.431C1137.45 407.598 1150.08 430.092 1166.16 448.914C1182.7 467.736 1201.76 482.426 1223.35 492.984C1244.94 503.084 1268.59 508.133 1294.32 508.133C1328.77 508.133 1357.02 499.182 1379.07 481.278C1401.12 463.374 1420.41 435.371 1436.95 397.269C1437.41 395.892 1438.78 395.433 1441.08 395.892C1443.38 396.351 1444.53 397.039 1444.53 397.958L1435.57 479.901C1435.11 485.41 1434.19 489.082 1432.81 490.918C1431.89 492.296 1429.6 493.902 1425.92 495.739C1403.41 504.92 1381.36 511.347 1359.78 515.019C1338.19 519.151 1316.14 521.217 1293.63 521.217C1244.48 521.217 1200.84 512.035 1162.71 493.673C1124.59 474.851 1094.5 448.684 1072.45 415.172C1050.86 381.202 1040.07 342.41 1040.07 298.799C1040.07 265.746 1046.5 235.448 1059.36 207.904C1072.22 180.36 1090.14 156.718 1113.1 136.978C1136.53 117.238 1163.86 102.089 1195.1 91.5308C1226.33 80.5132 1260.1 75.0044 1296.38 75.0044Z" fill="#9A886C"/>
<path d="M5355 0C5429.56 0.000229633 5490 60.4418 5490 135C5490 209.558 5429.56 270 5355 270H5160C5085.44 270 5025 209.558 5025 135C5025 60.4417 5085.44 0 5160 0H5355ZM5273.13 90C5264.02 90 5256.36 92.02 5250.16 96.0605C5243.95 100.101 5239.32 105.553 5236.26 112.414C5233.27 119.199 5231.78 126.708 5231.78 134.941C5231.78 143.175 5233.27 150.723 5236.26 157.584C5239.32 164.369 5243.95 169.821 5250.16 173.938C5256.36 177.978 5264.02 179.998 5273.13 179.998C5283.32 179.998 5291.55 177.444 5297.83 172.336C5304.11 167.228 5307.94 160.214 5309.32 151.295H5294.5C5293.58 156.708 5291.2 160.863 5287.38 163.76C5283.62 166.58 5278.8 167.99 5272.9 167.99C5264.17 167.99 5257.43 164.979 5252.68 158.956C5248.01 152.933 5245.68 144.928 5245.68 134.941C5245.68 125.031 5248.01 117.103 5252.68 111.156C5257.43 105.134 5264.17 102.122 5272.9 102.122C5278.72 102.122 5283.55 103.456 5287.38 106.124C5291.2 108.716 5293.58 112.376 5294.5 117.103H5309.32C5308.01 108.869 5304.19 102.312 5297.83 97.4326C5291.47 92.4773 5283.24 90.0001 5273.13 90ZM5130 91.3691V178.623H5143.56V114.927C5143.56 111.039 5143.36 106.846 5142.98 102.348L5144.82 102.119C5145.59 106.922 5146.54 111.191 5147.69 114.927L5167.45 178.623H5180.77L5200.3 114.927C5201.6 110.734 5202.64 106.465 5203.4 102.119L5205.24 102.348C5204.78 106.846 5204.55 111.039 5204.55 114.927V178.623H5218.11V91.3691H5194.9L5177.21 151.178C5176.45 153.617 5175.87 155.904 5175.49 158.039C5175.18 160.174 5175.03 162.728 5175.03 165.701H5173.19C5173.19 162.728 5173 160.212 5172.62 158.153C5172.24 156.095 5171.66 153.77 5170.9 151.178L5153.21 91.3691H5130ZM5321.94 178.623H5335.49V142.715H5357.2C5365.63 142.715 5372.37 140.428 5377.42 135.854C5382.48 131.203 5385 124.838 5385 116.757C5385 108.295 5382.51 101.966 5377.54 97.7734C5372.56 93.5042 5365.78 91.3692 5357.2 91.3691H5321.94V178.623ZM5355.37 103.491C5360.57 103.491 5364.56 104.673 5367.31 107.036C5370.15 109.399 5371.56 112.754 5371.56 117.1C5371.56 121.598 5370.15 125.028 5367.31 127.392C5364.56 129.755 5360.57 130.936 5355.37 130.937H5335.49V103.491H5355.37Z" fill="#708238"/>
</svg>
