<svg width="64" height="38" viewBox="0 0 64 38" fill="none" xmlns="http://www.w3.org/2000/svg">
<g clip-path="url(#clip0_178_908)">
<path d="M45.3255 9.67266L49.0302 14.0271C49.4573 14.5162 49.8296 14.9177 49.9865 15.1476C51.0961 16.2499 51.7166 17.7355 51.7166 19.2867C51.6144 21.119 50.4172 22.3637 49.3186 23.6996L46.7271 26.7436L45.3729 28.3204C45.3255 28.3752 45.2926 28.4409 45.2817 28.5139C45.2707 28.5869 45.2817 28.6599 45.3145 28.7256C45.3437 28.7913 45.3948 28.846 45.4605 28.8862C45.5262 28.9263 45.5992 28.9409 45.6722 28.9373H59.1918C61.254 28.9373 63.8565 30.6747 63.7068 33.3063C63.7068 34.4999 63.2177 35.6496 62.36 36.4964C61.4986 37.3432 60.3342 37.8214 59.1224 37.825H37.9525C36.5582 37.825 32.8133 37.9747 31.7658 34.7809C31.5431 34.113 31.5139 33.3976 31.6782 32.7114C31.9848 31.7003 32.4666 30.7513 33.1017 29.9045C34.1675 28.3277 35.3209 26.7473 36.456 25.218C37.9233 23.2141 39.4271 21.276 40.9053 19.232C40.9564 19.1663 40.9856 19.0823 40.9856 18.9984C40.9856 18.9144 40.9564 18.8305 40.9053 18.7648L35.5253 12.454C35.4924 12.4065 35.445 12.3737 35.3902 12.3481C35.3391 12.3226 35.2844 12.308 35.2223 12.308C35.1603 12.308 35.1055 12.3226 35.0544 12.3481C35.0033 12.3737 34.9559 12.4138 34.9194 12.454C33.4776 14.3702 27.1705 22.8601 25.8273 24.5792C24.4841 26.2983 21.1699 26.3932 19.3339 24.5792L10.9207 16.2536C10.8696 16.2025 10.8003 16.1623 10.7236 16.1514C10.6506 16.1368 10.574 16.1441 10.501 16.1733C10.4316 16.2025 10.3732 16.2499 10.3294 16.3156C10.2856 16.3813 10.2637 16.4543 10.2637 16.5273V32.5289C10.2856 33.664 9.94252 34.7773 9.28918 35.7153C8.63583 36.6497 7.69778 37.3615 6.61374 37.7447C5.92024 37.982 5.18294 38.055 4.4566 37.9528C3.73025 37.8506 3.03675 37.5805 2.4418 37.1607C1.84321 36.7446 1.35411 36.1898 1.01831 35.5474C0.682511 34.905 0.503662 34.1933 0.503662 33.4706V4.69773C0.551112 3.66114 0.93071 2.66469 1.58771 1.85075C2.23741 1.0368 3.1353 0.449151 4.15 0.171752C5.01869 -0.0545467 5.93484 -0.0545467 6.80354 0.179052C7.67223 0.412651 8.46428 0.86525 9.09573 1.50035L22.0276 14.2607C22.0678 14.3008 22.1152 14.33 22.1663 14.3483C22.2174 14.3665 22.2722 14.3738 22.3306 14.3702C22.3853 14.3665 22.4364 14.3483 22.4839 14.3227C22.5313 14.2972 22.5751 14.257 22.6043 14.2169L31.7913 1.67555C32.2184 1.1682 32.7513 0.75575 33.3535 0.471051C33.9558 0.186352 34.6128 0.0367029 35.2844 0.0294029H59.1845C59.8378 0.0294029 60.4839 0.171752 61.0788 0.438201C61.6738 0.70465 62.2067 1.0952 62.6337 1.58065C63.0644 2.06609 63.3856 2.63914 63.5754 3.25234C63.7652 3.87284 63.8163 4.51889 63.7287 5.15763C63.5608 6.26723 62.9878 7.27827 62.1191 8.00097C61.2504 8.72732 60.1481 9.11787 59.0093 9.10327H45.6248C45.5554 9.10327 45.4897 9.12517 45.435 9.15802C45.3802 9.19087 45.3328 9.24562 45.2999 9.30037C45.2707 9.35877 45.2525 9.42447 45.2561 9.49016C45.2561 9.55586 45.2817 9.61791 45.3218 9.67631H45.3182L45.3255 9.67266Z" fill="#9A886C"/>
</g>
<defs>
<clipPath id="clip0_178_908">
<rect width="63.2725" height="38" fill="white" transform="translate(0.5)"/>
</clipPath>
</defs>
</svg>
