<svg width="64" height="64" viewBox="0 0 64 64" fill="none" xmlns="http://www.w3.org/2000/svg">
<path fill-rule="evenodd" clip-rule="evenodd" d="M30.0751 19.2627C31.8001 20.1502 33.6876 20.4502 35.5001 20.4502C36.5501 21.4127 37.4251 22.5502 38.2501 23.7127C38.5876 24.2002 38.9001 24.7127 39.1751 25.2377C39.8001 26.4502 40.2626 27.7252 40.7376 29.0252C40.8751 29.4002 41.0126 29.7877 41.1501 30.1627C41.2001 30.3252 41.2376 30.4877 41.2876 30.6502C42.0126 33.1252 43.0626 35.7627 44.4751 37.9502C44.9376 38.6627 45.4626 39.3502 46.0376 39.9752C46.1501 40.1002 46.2626 40.2127 46.3876 40.3377C46.9251 40.9002 47.4751 41.4752 47.7876 42.1877C48.1751 43.0752 48.1376 44.1002 47.9126 45.0377C46.8251 49.4752 42.5501 50.6377 38.4626 50.7502C36.9376 50.7752 35.4126 50.6627 34.0626 50.5252C34.0626 50.5252 27.5626 49.8502 22.0501 45.8252L21.8751 45.6877C21.2376 45.2127 20.6126 44.6877 20.0376 44.1377C18.4876 42.6627 17.1126 40.9877 16.0626 39.1502C16.0751 39.1377 16.0751 39.1377 16.0876 39.1252C15.9626 38.9002 15.8501 38.6752 15.7251 38.4502C14.7126 36.4127 14.0876 34.2002 14.0626 31.8502C14.0126 27.9002 15.3626 23.8502 17.9376 20.9127C17.9376 20.9127 17.9376 20.9127 17.9376 20.9002C19.3251 19.3752 21.0626 18.1752 23.1251 17.5002C24.4126 17.0752 25.7751 16.8627 27.1251 16.8877C27.9251 17.8627 28.9376 18.6752 30.0751 19.2627Z" fill="#9A886C"/>
<path fill-rule="evenodd" clip-rule="evenodd" d="M43.5624 16.0375L43.6249 16C36.3749 3.63749 26.8999 13.375 26.8999 13.375L26.9124 13.4C32.3624 22.9625 42.7124 16.5875 43.5624 16.0375Z" fill="#9A886C"/>
<path d="M34.5749 37.3373C32.5749 42.1123 28.7374 45.2748 24.0999 45.7498C23.9999 45.7623 22.7249 45.8623 22.0249 45.8123C27.5374 49.8373 34.0374 50.5123 34.0374 50.5123C35.4249 50.6498 36.9999 50.7748 38.5874 50.7248C39.1499 49.2748 39.4624 47.6123 39.3624 45.7123C39.1499 41.3248 41.6999 39.0748 44.4499 37.9123C43.0374 35.7248 41.9874 33.0873 41.2624 30.6123C39.1249 31.2123 36.3874 33.0123 34.5749 37.3373Z" fill="#9A886C"/>
<path d="M39.2875 45.7001C39.375 47.5876 39 49.2876 38.4375 50.7501C42.525 50.6376 46.7875 49.4751 47.8875 45.0376C48.1125 44.1001 48.15 43.0751 47.7625 42.1876C47.3875 41.3251 46.6625 40.6626 46.025 39.9751C45.425 39.3126 44.8875 38.6001 44.4 37.8501C41.6375 39.0001 39.075 41.3126 39.2875 45.7001Z" fill="#9A886C"/>
<path d="M41.1249 30.15C40.4999 28.475 39.9624 26.7875 39.1499 25.225C38.8749 24.7 38.5749 24.1875 38.2249 23.7C37.3999 22.5375 36.5249 21.4 35.4749 20.4375C33.6624 20.4375 31.7749 20.1375 30.0499 19.25C28.2999 21.725 26.2999 25.9375 28.1374 30.7375C30.8374 37.825 25.3499 42.675 21.8374 45.675L22.0124 45.8125C22.6749 45.8625 23.3374 45.85 23.9999 45.7875C28.6499 45.3125 32.6999 42.075 34.6999 37.3C36.5124 32.9625 39.1499 31.325 41.2874 30.75C41.2374 30.55 41.1874 30.35 41.1249 30.15Z" fill="#9A886C"/>
<path d="M18.0999 20.7124C15.4124 23.6624 13.9874 27.8124 14.0374 31.8499C14.0624 34.1999 14.6874 36.4249 15.6999 38.4499C15.8499 38.7499 16.0124 39.0624 16.1874 39.3499C21.8499 33.6749 19.7999 25.2124 18.0999 20.7124Z" fill="#9A886C"/>
<path d="M28.25 30.75C26.425 25.95 28.375 21.7625 30.125 19.2875C28.975 18.7 27.95 17.8875 27.1125 16.9C25.75 16.875 24.4 17.075 23.1125 17.5125C21.05 18.2 19.3125 19.3875 17.925 20.9125C19.5875 25.325 21.5875 33.6 16.05 39.1625C17.1 41 18.475 42.675 20.025 44.15C20.6375 44.725 21.275 45.275 21.9625 45.775C25.4625 42.7625 30.95 37.8375 28.25 30.75Z" fill="#9A886C"/>
<path d="M35.0751 14.1623C38.9125 15.6748 41.5875 16.0873 43.5375 16.0248L43.5876 15.9873C36.3376 3.6248 26.8625 13.3623 26.8625 13.3623L26.875 13.3873C28.925 13.0248 31.9001 12.9123 35.0751 14.1623Z" fill="#9A886C"/>
<path d="M35.125 14.0748C31.95 12.8248 28.9625 12.8748 26.875 13.3873C32.325 22.9498 42.6875 16.5748 43.5375 16.0248C41.5875 16.0873 38.95 15.5873 35.125 14.0748Z" fill="#9A886C"/>
</svg>
