<svg width="91" height="64" viewBox="0 0 91 64" fill="none" xmlns="http://www.w3.org/2000/svg">
<g clip-path="url(#clip0_178_842)">
<path fill-rule="evenodd" clip-rule="evenodd" d="M80.7294 39.6162L80.7304 39.6096C82.1704 38.8217 83.662 37.0099 84.6807 35.7724H84.6809C84.9563 35.4379 85.1973 35.1452 85.3931 34.9263C87.2665 32.5096 88.6236 29.7359 89.3811 26.7759C94.0176 10.395 82.654 -1.86263 66.0374 0.233785C54.0056 2.3563 45.4722 10.4396 36.9328 18.5287C34.2131 21.1048 31.493 23.6816 28.6592 26.0663C27.5036 25.5404 25.9119 25.3197 24.6134 25.1394C24.0093 25.0557 23.4688 24.9807 23.0649 24.888C16.7722 24.3692 9.61092 25.979 5.18878 30.728C-1.84376 38.6109 -1.68809 50.7883 10.6403 52.5157C13.5335 53.0317 16.4981 52.9296 19.3398 52.222C19.4206 52.601 19.5765 52.9643 19.7321 53.327C19.829 53.5528 19.9258 53.7785 20.0044 54.0078C20.4955 55.1879 20.8638 56.4249 21.2323 57.6618C21.7688 59.463 22.3054 61.2644 23.2206 62.8907C23.5236 63.2856 23.9278 63.4729 24.3437 63.5016C24.6028 63.7869 24.9651 63.9797 25.4178 63.9978C34.7459 59.9355 44.5418 57.0398 54.5825 55.3767C60.2096 54.3133 65.8454 53.7907 71.5162 53.265H71.5168C74.7427 52.9659 77.9798 52.6656 81.2332 52.2643C82.8896 52.3006 83.5039 50.8475 83.1026 49.79C83.2673 49.4862 83.3366 49.1139 83.2595 48.6865C82.9747 47.4996 82.6228 46.3282 82.2717 45.1593L82.2715 45.1587C82.213 44.9637 82.1544 44.7689 82.0961 44.5739C82.0064 44.2651 81.9156 43.9562 81.8247 43.6472L81.8239 43.6452C81.4316 42.312 81.0382 40.9748 80.7294 39.6162ZM22.5772 51.1561C24.5601 50.4729 26.8639 49.5125 26.1256 47.5741C25.9259 47.159 25.571 46.8384 25.1372 46.6815C24.7032 46.5246 24.2248 46.5436 23.8047 46.7346C18.2837 49.6706 10.5061 50.7937 5.44606 46.4243C2.04235 42.178 5.03875 35.7497 8.44781 32.3912C13.0257 28.4948 19.4379 27.6893 25.2525 28.7821C24.3225 29.4791 23.3765 30.1494 22.4111 30.7868C20.5029 32.0596 22.3735 34.8726 24.2871 33.7069C29.6326 30.3526 34.1746 25.9894 38.7195 21.6232C41.5805 18.8747 44.4427 16.125 47.5073 13.6251C54.4434 7.76376 63.4538 2.3302 72.8823 3.72067C77.5833 4.68331 82.6378 6.80647 84.8624 11.3309C88.6038 18.1816 87.0171 27.3053 82.2949 33.3057C81.3441 34.5351 80.2415 35.6396 79.0131 36.5928C78.5493 36.4549 78.0153 36.408 77.5112 36.3638C77.3185 36.3468 77.1303 36.3303 76.952 36.3091C78.4891 33.74 79.2807 29.6906 79.1971 27.9684C79.3794 25.7438 76.0346 25.4176 75.7986 27.6315C75.7419 28.9824 75.5498 30.3244 75.2253 31.6371C74.8498 32.9795 74.2042 34.2314 73.3277 35.3166C73.0345 35.4275 72.777 35.6151 72.5817 35.8599C72.5212 35.9361 72.4672 36.0168 72.4205 36.1012C71.1092 36.0783 69.7979 36.0848 68.4874 36.1205C69.4883 33.8564 70.0419 31.1808 69.7949 30.0543C69.6526 28.6578 69.3668 27.2798 68.9424 25.9415C68.2402 23.8132 65.0405 24.8346 65.673 26.9737C66.7922 30.0387 66.4733 33.7555 64.3375 36.3323C61.7906 36.5227 59.2516 36.8241 56.7273 37.2364C53.595 37.8816 50.511 38.7411 47.4969 39.8088C47.0687 39.9512 46.7124 40.2536 46.5025 40.6524C46.2927 41.0511 46.2456 41.5155 46.3713 41.9479C46.5107 42.378 46.8127 42.7369 47.2129 42.9486C47.6132 43.1603 48.0804 43.208 48.5153 43.0818C49.1785 42.8816 49.8391 42.675 50.4994 42.4683H50.4998L50.5002 42.4681C52.1338 41.9569 53.7656 41.4463 55.4298 41.0388C58.5694 40.3019 61.6146 39.9817 64.7941 39.7907C65.0117 39.8218 65.2269 39.8076 65.439 39.7536C66.2025 39.7117 66.9745 39.6762 67.7582 39.6429C70.9317 39.3825 74.1012 39.5594 77.257 39.7663C77.2889 40.5768 77.5773 41.4949 77.8391 42.3279V42.3281C77.993 42.8178 78.1376 43.2782 78.2156 43.6701C78.4867 44.5685 78.7335 45.4751 78.9803 46.3813C79.2105 47.2264 79.4405 48.0712 79.6901 48.9086C76.8575 49.2385 74.0153 49.5169 71.1719 49.7952C63.9502 50.5022 56.7209 51.2098 49.6243 52.7671C44.4115 53.8194 39.2699 55.1965 34.2297 56.8904L34.2157 56.8948C31.3445 57.8113 28.4436 58.7372 25.807 60.2021C25.402 59.1039 25.0431 57.9852 24.684 56.8663C24.0619 54.9272 23.4398 52.988 22.5772 51.1561ZM31.3689 49.916C29.8306 50.5137 27.5727 51.391 28.6502 53.3124C29.6668 54.6359 31.0328 53.9177 32.3607 53.2199C32.9862 52.8909 33.6032 52.5667 34.1714 52.4623C35.7318 51.8434 37.3243 51.3079 38.9417 50.8579C39.9723 50.5873 41.0082 50.3335 42.0415 50.0803C42.4382 49.9832 42.8344 49.8861 43.2299 49.7882C45.3579 49.1251 44.3502 45.8842 42.2062 46.5366C38.6522 47.306 35.1713 48.3796 31.8022 49.7453C31.6675 49.8 31.5218 49.8566 31.3689 49.916Z" fill="#9A886C"/>
</g>
<defs>
<clipPath id="clip0_178_842">
<rect width="89.9241" height="64" fill="white" transform="translate(0.5)"/>
</clipPath>
</defs>
</svg>
