<svg width="65" height="44" viewBox="0 0 65 44" fill="none" xmlns="http://www.w3.org/2000/svg">
<mask id="mask0_178_898" style="mask-type:luminance" maskUnits="userSpaceOnUse" x="0" y="0" width="65" height="44">
<path d="M64.5 0.769043H0.5V43.2305H64.5V0.769043Z" fill="white"/>
</mask>
<g mask="url(#mask0_178_898)">
<path fill-rule="evenodd" clip-rule="evenodd" d="M32.6377 31.3259C32.9329 30.8897 32.9676 30.3138 32.6898 29.8601L15.8288 1.32864C15.5858 0.909833 15.1516 0.665527 14.6654 0.665527H2.82285C1.78098 0.665527 1.12112 1.79981 1.65943 2.70723L23.8165 40.7144C24.3027 41.5693 25.5356 41.6217 26.0913 40.8015L32.6377 31.3259ZM12.165 40.121C12.7033 41.0283 12.0434 42.1801 11.0015 42.1801H10.9842H2.87494C2.12827 42.1801 1.52051 41.5693 1.52051 40.8188V27.068C1.52051 25.672 3.34378 25.1834 4.03836 26.37L12.165 40.121Z" fill="#9A886C"/>
<path d="M64.38 40.505C64.9008 41.4122 64.2582 42.5466 63.2165 42.5466H51.4434C50.9572 42.5466 50.523 42.2848 50.2799 41.8658L27.4456 2.70723C26.9247 1.79981 27.5672 0.665527 28.609 0.665527H40.4342C40.9204 0.665527 41.3545 0.927284 41.5976 1.3461L64.38 40.505Z" fill="#9A886C"/>
</g>
</svg>
