<svg width="65" height="64" viewBox="0 0 65 64" fill="none" xmlns="http://www.w3.org/2000/svg">
<g clip-path="url(#clip0_178_823)">
<path d="M64.5 32C64.5 49.675 50.175 64 32.5 64C14.825 64 0.5 49.675 0.5 32C0.5 14.325 14.825 0 32.5 0C50.175 0 64.5 14.325 64.5 32Z" fill="#F8F8F6"/>
<path d="M24.6875 19.0373C23.3875 19.2248 24.1125 20.3373 24.1125 20.3373L24.075 20.6498C25.9375 23.8623 29.0125 27.2373 32.15 29.4873C34.4625 31.1373 36.1875 33.5748 37.025 36.3498C37.85 39.0873 37.7 41.9248 36.625 44.1248C35.325 46.7748 32.8625 48.3123 29.7125 48.4623C26.575 48.6123 22.85 47.3748 18.6375 44.7873C18.6 44.8873 18.55 44.9873 18.5 45.0748C22.15 48.8373 26.375 51.0873 30.7625 51.5998C35.2 52.1248 39.75 50.8748 43.6 48.1123C43.5 48.1123 43.425 48.0873 43.3625 48.0498C56.3125 37.3498 35.1125 17.5498 24.6875 19.0373Z" fill="#F8F8F6"/>
<path d="M58.3251 33.4248C58.3126 33.1873 58.3001 32.8998 58.2501 32.5623C58.0876 31.2498 57.5626 29.2373 56.0376 27.0998C55.9626 26.9998 55.8876 26.8998 55.8126 26.7998C55.8001 26.7748 55.7751 26.7498 55.7626 26.7248C55.7001 26.6373 55.6251 26.5498 55.5626 26.4623L55.5501 26.4498C55.4751 26.3623 55.4001 26.2623 55.3251 26.1748C55.3126 26.1498 55.2876 26.1373 55.2751 26.1123C55.2126 26.0373 55.1376 25.9498 55.0751 25.8748C55.0626 25.8623 55.0626 25.8623 55.0501 25.8498C54.9751 25.7623 54.9001 25.6873 54.8251 25.5998C54.8126 25.5873 54.7876 25.5623 54.7751 25.5498C54.7126 25.4748 54.6501 25.4123 54.5876 25.3498C54.5751 25.3373 54.5626 25.3248 54.5626 25.3123C54.4876 25.2373 54.4126 25.1623 54.3501 25.0998C54.3376 25.0873 54.3251 25.0748 54.3001 25.0498C54.2376 24.9873 54.1751 24.9248 54.1126 24.8748C54.1001 24.8623 54.0876 24.8498 54.0751 24.8373C54.0001 24.7748 53.9376 24.7123 53.8626 24.6498C53.8501 24.6373 53.8376 24.6248 53.8251 24.6123C53.7626 24.5623 53.7001 24.5123 53.6501 24.4623C53.6376 24.4498 53.6251 24.4373 53.6126 24.4248C53.5501 24.3623 53.4751 24.3123 53.4126 24.2623C53.4001 24.2498 53.3876 24.2373 53.3751 24.2248C53.3251 24.1748 53.2626 24.1373 53.2126 24.0873C53.2001 24.0748 53.1751 24.0623 53.1626 24.0498C53.1001 23.9998 53.0376 23.9498 52.9751 23.9123C52.9626 23.8998 52.9501 23.8873 52.9376 23.8873C52.8876 23.8498 52.8376 23.8123 52.7876 23.7748C52.7751 23.7623 52.7501 23.7498 52.7376 23.7373C52.6751 23.6998 52.6251 23.6623 52.5626 23.6123C52.5501 23.5998 52.5376 23.5873 52.5126 23.5873C52.4626 23.5623 52.4251 23.5248 52.3876 23.4998C52.3626 23.4873 52.3501 23.4748 52.3251 23.4623C52.2751 23.4373 52.2251 23.3998 52.1876 23.3748C52.1626 23.3623 52.1376 23.3498 52.1251 23.3373C52.0876 23.3123 52.0626 23.2998 52.0251 23.2748C52.0001 23.2623 51.9751 23.2498 51.9501 23.2373C51.9251 23.2248 51.8876 23.1998 51.8626 23.1873C51.8251 23.1623 51.7876 23.1373 51.7376 23.1248C51.7126 23.1123 51.7001 23.0998 51.6751 23.0873C51.6501 23.0748 51.6251 23.0623 51.5876 23.0498C51.5751 23.0373 51.5626 23.0373 51.5501 23.0248C51.5001 22.9998 51.4376 22.9623 51.3876 22.9373H51.3751C51.0376 22.3373 50.6626 21.7373 50.2626 21.1373C45.6001 14.3123 40.4876 10.9998 34.6501 10.9873H34.6251C32.1501 10.9873 29.8876 11.5498 28.0001 12.0998C27.4626 12.2623 26.9001 12.4248 26.3626 12.5998C24.9876 13.0248 23.6876 13.4373 22.5751 13.6123C21.8751 13.7248 21.3251 13.9873 20.9376 14.3873C20.5876 14.7623 20.3751 15.2748 20.3126 15.8998C20.1876 17.1123 20.6251 18.7498 21.5751 20.6248C23.4876 24.4248 27.1501 28.6123 30.9001 31.2998C31.3376 31.6123 31.7376 31.9498 32.1126 32.3248C32.0376 32.3373 31.9626 32.3498 31.8751 32.3623C28.9376 32.7873 27.4001 35.9373 26.7876 37.6498C26.6251 38.0998 27.0626 38.4998 27.5126 38.3373C29.3376 37.7248 33.0501 36.7248 35.1376 38.0123C35.1501 38.0123 35.1751 37.9998 35.1876 37.9998C35.5626 39.8748 35.3876 41.7248 34.6751 43.1623C33.7376 45.0498 31.9501 46.1623 29.6376 46.2748C26.9126 46.4123 23.5626 45.2498 19.6751 42.8248L19.6126 42.7873C19.5751 42.7748 19.5376 42.7498 19.5126 42.7248C22.5376 39.2873 20.7501 33.9873 20.0501 32.2498C19.9626 32.0248 19.6376 32.0248 19.5126 32.2373C17.8876 34.9998 14.5376 34.7873 14.6001 38.0748C14.6001 38.0748 14.6001 38.0748 14.6001 38.0623C12.0501 35.9873 10.1501 38.7498 6.97509 38.3373C6.72509 38.2998 6.53759 38.5498 6.66259 38.7623C7.62509 40.4248 10.8501 45.2998 15.6126 44.7498L15.3876 44.9123L16.2376 45.8498C20.4001 50.4373 25.3501 53.1873 30.5626 53.7998C31.3126 53.8873 32.0626 53.9373 32.8126 53.9373C37.1751 53.9373 41.5126 52.4748 45.2376 49.6998C49.5126 46.5248 52.4751 42.0373 53.5876 37.0748C53.9626 35.4248 54.1126 33.7748 54.0501 32.1373C54.9876 31.7623 56.0126 32.1748 56.8251 32.7248C56.8376 32.7248 56.8376 32.7373 56.8501 32.7373C56.8876 32.7623 56.9126 32.7873 56.9501 32.7998C56.9626 32.7998 56.9626 32.8123 56.9751 32.8123C57.0751 32.8748 57.1626 32.9498 57.2501 33.0123C57.2626 33.0248 57.2876 33.0373 57.3001 33.0498C57.3251 33.0623 57.3376 33.0873 57.3626 33.0998C57.3876 33.1123 57.4001 33.1373 57.4251 33.1498C57.4376 33.1623 57.4626 33.1748 57.4751 33.1998C57.5126 33.2248 57.5501 33.2623 57.5751 33.2873C57.5876 33.2998 57.6001 33.3123 57.6126 33.3123C57.6376 33.3373 57.6626 33.3623 57.6876 33.3748C57.7001 33.3873 57.7126 33.3998 57.7251 33.4123C57.7501 33.4373 57.7751 33.4498 57.8001 33.4748C57.8126 33.4873 57.8251 33.4873 57.8251 33.4998C57.8501 33.5248 57.8876 33.5623 57.9126 33.5873C57.9251 33.5998 57.9376 33.5998 57.9376 33.6123C58.0001 33.6623 58.0751 33.6748 58.1376 33.6748C58.2126 33.6873 58.3376 33.5748 58.3251 33.4248ZM43.3626 48.0623C43.4251 48.0998 43.5001 48.1123 43.6001 48.1248C39.7501 50.8998 35.2001 52.1373 30.7626 51.6123C26.3626 51.0998 22.1501 48.8498 18.5001 45.0873C18.5501 44.9873 18.6001 44.8998 18.6376 44.7998C22.8501 47.3873 26.5751 48.6248 29.7126 48.4748C32.8626 48.3248 35.3251 46.7748 36.6251 44.1373C37.7126 41.9373 37.8501 39.1123 37.0251 36.3623C36.1876 33.5873 34.4626 31.1498 32.1501 29.4998C29.0001 27.2498 25.9376 23.8748 24.0751 20.6623L24.1126 20.3498C24.1126 20.3498 23.3876 19.2373 24.6876 19.0498C35.1126 17.5498 56.3126 37.3498 43.3626 48.0623Z" fill="#9A886C"/>
<path d="M35.5374 18.3123C35.1749 17.7998 34.4499 16.4248 36.6999 16.4248C38.9499 16.4248 42.3749 18.9623 43.0749 19.8998C42.8624 20.4748 41.4124 20.5998 40.6874 20.5498C39.9624 20.4998 38.7374 20.3748 37.7874 19.8998C36.8499 19.4498 35.8999 18.8248 35.5374 18.3123Z" fill="#F8F8F6"/>
</g>
<defs>
<clipPath id="clip0_178_823">
<rect width="64" height="64" fill="white" transform="translate(0.5)"/>
</clipPath>
</defs>
</svg>
