<svg width="65" height="64" viewBox="0 0 65 64" fill="none" xmlns="http://www.w3.org/2000/svg">
<path d="M57.3021 24.1084V46.4824L32.4999 60.7046L7.69778 46.3089V17.6911L32.4999 3.29539L51.5785 14.3957L54.527 12.6612L32.4999 0L4.74927 15.9566V48.0434L32.4999 64L60.2506 48.0434V22.374L57.3021 24.1084Z" fill="#9A886C"/>
<path d="M25.5623 46.4823H21.3997V32.607H35.275C36.6625 32.607 37.8766 32.0867 38.7438 31.046C39.611 30.1788 40.1314 28.7913 40.1314 27.5772C40.1314 26.8834 39.9579 26.3631 39.7845 25.6693C39.611 25.149 39.0907 24.4552 38.7438 24.1083C38.2235 23.588 37.7032 23.2411 37.1829 23.0677C36.6625 22.8942 35.9688 22.5474 35.275 22.5474H21.3997V18.3848H35.275C37.7032 18.3848 39.9579 19.4254 41.6923 21.1598C43.4268 22.8942 44.4674 25.149 44.4674 27.5772C44.4674 29.485 43.9471 31.2195 42.9064 32.7804C41.8658 34.168 40.4783 35.3821 38.9173 36.0758C37.3563 36.5961 35.6219 36.7696 33.8875 36.7696H25.5623V46.4823Z" fill="#9A886C"/>
<path d="M44.2942 46.1357H39.4378L35.6221 39.5449C37.183 39.3715 38.5706 39.1981 39.9581 38.6777L44.2942 46.1357Z" fill="#9A886C"/>
<path d="M54.5271 19.4254L57.4756 20.9864L60.4241 19.4254V15.9566L57.4756 14.2222L54.5271 15.9566V19.4254Z" fill="#9A886C"/>
</svg>
