<svg width="65" height="52" viewBox="0 0 65 52" fill="none" xmlns="http://www.w3.org/2000/svg">
<path fill-rule="evenodd" clip-rule="evenodd" d="M16.4232 7.27622C17.9618 5.6982 17.9299 3.17173 16.3518 1.6332C14.7738 0.0946632 12.2474 0.126933 10.7088 1.7046L5.06239 7.49625C-1.74877 14.4818 -1.67806 25.6453 5.22098 32.5443C12.0953 39.4186 23.21 39.5168 30.2048 32.765L38.1186 25.1259C42.3161 21.0743 48.9766 21.1035 53.138 25.1908C57.6606 29.6327 57.3856 37.001 52.5445 41.0931L48.5588 44.462C46.8758 45.8845 46.6643 48.4023 48.0872 50.0854C49.5097 51.7685 52.0275 51.9799 53.7106 50.5571L57.6966 47.1882C66.127 40.0626 66.6059 27.2315 58.7306 19.497C51.4835 12.3786 39.8847 12.3288 32.5758 19.3837L24.6621 27.0228C20.7993 30.7518 14.6606 30.6975 10.8643 26.901C7.05404 23.0907 7.01525 16.9255 10.7768 13.0675L16.4232 7.27622ZM41.1613 5.38068C41.7449 7.50586 40.4947 9.70176 38.3695 10.2853C34.2784 11.4082 30.0569 14.3407 26.6699 17.2842C25.0215 18.7164 23.6594 20.0726 22.7126 21.0678C22.2406 21.5638 21.8751 21.9668 21.6327 22.2397C21.5115 22.376 21.4213 22.4796 21.3639 22.5462L21.3032 22.6169L21.2936 22.6283C19.8765 24.3154 17.3593 24.5362 15.6715 23.1195C13.9836 21.7028 13.7636 19.1856 15.1803 17.4978L18.1406 19.982C15.1803 17.4978 15.1803 17.4978 15.1803 17.4978L15.1861 17.4906L15.1954 17.4799L15.2239 17.4463L15.3203 17.3337C15.402 17.2389 15.518 17.1057 15.6663 16.9389C15.9629 16.6049 16.39 16.135 16.9306 15.5665C18.0095 14.4327 19.5549 12.8935 21.435 11.2599C25.1039 8.07157 30.4208 4.19125 36.257 2.58886C38.3822 2.00565 40.5781 3.25549 41.1613 5.38068ZM47.517 30.6738C45.8267 29.2602 43.3109 29.4844 41.897 31.174L41.8867 31.186L41.8266 31.2564C41.7696 31.3226 41.6797 31.4263 41.5588 31.5626C41.3172 31.8351 40.9526 32.2374 40.4813 32.7328C39.5363 33.7265 38.1763 35.0787 36.5299 36.5015C33.1432 39.4279 28.9323 42.3107 24.8516 43.3546C22.7164 43.9007 21.4285 46.0746 21.9746 48.2098C22.5208 50.3446 24.6943 51.6329 26.8295 51.0864C32.7224 49.5791 38.0698 45.7187 41.748 42.5403C43.6339 40.9105 45.1831 39.3699 46.264 38.2337C46.8057 37.6638 47.2334 37.1922 47.5307 36.8568C47.6793 36.6893 47.7957 36.5554 47.8778 36.46L47.9746 36.3467L48.0034 36.3127L48.0127 36.3017L48.0171 36.2962C48.0171 36.2962 48.0185 36.2945 44.9572 33.7348L48.0171 36.2962C49.4307 34.6056 49.2076 32.0874 47.517 30.6738Z" fill="#9A886C"/>
</svg>
