<svg width="58" height="64" viewBox="0 0 58 64" fill="none" xmlns="http://www.w3.org/2000/svg">
<g clip-path="url(#clip0_178_930)">
<path d="M28.7917 52.7282C19.0756 52.7282 11.1855 44.8381 11.1855 35.122C11.1855 25.6765 27.1236 8.99452 27.7998 8.29569L28.6339 7.4165L29.4906 8.27314C30.1894 8.97198 46.3979 25.6539 46.3979 35.0995C46.3979 44.8381 38.5078 52.7282 28.7917 52.7282ZM28.6565 10.8205C27.2588 12.3309 24.3282 15.5997 21.4201 19.432C16.2578 26.24 13.53 31.6504 13.53 35.0995C13.53 43.5081 20.3832 50.3612 28.7917 50.3612C37.2003 50.3612 44.0535 43.5081 44.0535 35.0995C44.0535 31.6504 41.2807 26.24 36.0281 19.432C33.0749 15.6222 30.0767 12.3309 28.6565 10.8205Z" fill="#9A886C"/>
<path d="M28.7915 58.364C15.9645 58.364 5.54956 47.9265 5.54956 35.122C5.54956 22.588 23.043 5.09451 23.787 4.37313C24.2378 3.92227 25.0043 3.92227 25.4552 4.37313C25.906 4.82399 25.906 5.59046 25.4552 6.04132C25.2748 6.22167 7.91659 23.5799 7.91659 35.122C7.91659 46.6415 17.2945 56.0195 28.8141 56.0195C40.3336 56.0195 49.7116 46.6415 49.7116 35.122C49.7116 30.3879 46.6457 23.8504 40.8296 16.1632C36.366 10.2794 31.88 5.81589 31.8349 5.77081C31.3615 5.31994 31.3615 4.57602 31.8349 4.10261C32.2857 3.62921 33.0297 3.62921 33.5031 4.10261C34.2695 4.84654 52.0786 22.5655 52.0786 35.122C52.0335 47.9265 41.6186 58.364 28.7915 58.364Z" fill="#9A886C"/>
<path d="M28.7917 64.0002C13.1918 64.0002 0.5 51.3084 0.5 35.7085C0.5 29.2612 3.74621 21.326 10.1259 12.1509C14.8374 5.38798 19.4588 0.563742 19.6617 0.360854C20.1125 -0.112552 20.8565 -0.112552 21.3299 0.338311C21.8033 0.789174 21.8033 1.5331 21.3524 2.0065C21.3073 2.05159 16.6409 6.92091 12.0421 13.5261C6.02307 22.1601 2.84449 29.8247 2.84449 35.7085C2.84449 50.0009 14.4768 61.6557 28.7917 61.6557C43.1066 61.6557 54.7388 50.0234 54.7388 35.7085C54.7388 29.8247 51.5377 22.1601 45.4736 13.5261C40.8297 6.92091 36.1182 2.05159 36.0731 2.0065C35.6222 1.5331 35.6222 0.789174 36.0956 0.338311C36.569 -0.112552 37.313 -0.112552 37.7638 0.360854C38.5528 1.17241 57.0833 20.4243 57.0833 35.7085C57.0833 51.3084 44.3915 64.0002 28.7917 64.0002Z" fill="#9A886C"/>
</g>
<defs>
<clipPath id="clip0_178_930">
<rect width="56.5833" height="64" fill="white" transform="translate(0.5)"/>
</clipPath>
</defs>
</svg>
