<svg width="12" height="12" viewBox="0 0 12 12" fill="none" xmlns="http://www.w3.org/2000/svg">
<path fill-rule="evenodd" clip-rule="evenodd" d="M1.25619 5.42442C4.20898 4.13793 6.17796 3.28979 7.16315 2.88002C9.97606 1.71002 10.5606 1.50678 10.9415 1.50007C11.0253 1.4986 11.2127 1.51936 11.334 1.61783C11.4365 1.70098 11.4647 1.81331 11.4782 1.89214C11.4917 1.97097 11.5085 2.15056 11.4951 2.29088C11.3427 3.89252 10.6831 7.77926 10.3476 9.57311C10.2056 10.3322 9.92599 10.5867 9.65533 10.6116C9.06713 10.6657 8.62047 10.2228 8.05077 9.84939C7.15929 9.26501 6.65567 8.90124 5.79033 8.33099C4.79029 7.67197 5.43858 7.30977 6.0085 6.71782C6.15765 6.5629 8.74929 4.20558 8.79945 3.99174C8.80573 3.96499 8.81155 3.8653 8.75232 3.81266C8.6931 3.76002 8.60569 3.77802 8.54261 3.79234C8.4532 3.81263 7.02905 4.75394 4.27018 6.61628C3.86594 6.89386 3.49979 7.02911 3.17173 7.02202C2.81008 7.01421 2.1144 6.81753 1.59724 6.64942C0.962913 6.44323 0.458765 6.33421 0.502665 5.98403C0.525531 5.80163 0.776707 5.61509 1.25619 5.42442Z" fill="#9D8B6F"/>
</svg>
